/* XPM */
static char * w_letter_xpm[] = {
"64 64 636 2",
"  	c #FFFFFF",
". 	c #FBFCF9",
"+ 	c #D9E4CE",
"@ 	c #F5F8F2",
"# 	c #C4D6B2",
"$ 	c #7BAD34",
"% 	c #85B24E",
"& 	c #D5E1C8",
"* 	c #FEFEFE",
"= 	c #C2D5AF",
"- 	c #8EB75C",
"; 	c #7DAE37",
"> 	c #7AAC34",
", 	c #C3D6B1",
"' 	c #FFFEFE",
") 	c #F3F6F0",
"! 	c #E1E9D6",
"~ 	c #E5ECDD",
"{ 	c #EFF4EB",
"] 	c #E9EFE2",
"^ 	c #D4E0C7",
"/ 	c #BCD1A7",
"( 	c #D8E3CB",
"_ 	c #FFFFFE",
": 	c #FCFDFA",
"< 	c #DFE8D6",
"[ 	c #8CB55E",
"} 	c #D3E0C7",
"| 	c #C3CDB7",
"1 	c #739F35",
"2 	c #7AAD34",
"3 	c #80AF42",
"4 	c #C2D5B0",
"5 	c #FAFCF9",
"6 	c #FDF6F7",
"7 	c #FEF4F4",
"8 	c #FDFAFB",
"9 	c #EAF0E4",
"0 	c #86B151",
"a 	c #62852A",
"b 	c #6B942D",
"c 	c #7BAD35",
"d 	c #AEC892",
"e 	c #C7D8B7",
"f 	c #E6EDDF",
"g 	c #FDE7E8",
"h 	c #FDADB0",
"i 	c #FE717A",
"j 	c #FF2F46",
"k 	c #FF0031",
"l 	c #FF0335",
"m 	c #FE4E5C",
"n 	c #FD8F95",
"o 	c #FCDBDC",
"p 	c #E4E8DE",
"q 	c #92A67B",
"r 	c #729F33",
"s 	c #668C2A",
"t 	c #6A932D",
"u 	c #7BAC34",
"v 	c #81A934",
"w 	c #ACB97C",
"x 	c #DEE7D4",
"y 	c #FEFFFE",
"z 	c #FDFCFC",
"A 	c #FDABAF",
"B 	c #FE1037",
"C 	c #FF0034",
"D 	c #FF0936",
"E 	c #FF4057",
"F 	c #FF556A",
"G 	c #FF5A6E",
"H 	c #FEC9AD",
"I 	c #FFAC95",
"J 	c #FE5865",
"K 	c #E7EEE0",
"L 	c #6D903B",
"M 	c #618428",
"N 	c #618528",
"O 	c #8FA334",
"P 	c #CF7633",
"Q 	c #E85333",
"R 	c #FC1433",
"S 	c #FCC0C2",
"T 	c #FDFEFD",
"U 	c #FDBABD",
"V 	c #FF0033",
"W 	c #FF2E49",
"X 	c #FF6074",
"Y 	c #FF687C",
"Z 	c #FF9290",
"` 	c #FF9990",
" .	c #FF0134",
"..	c #FF0032",
"+.	c #FDECEC",
"@.	c #FDFEFC",
"#.	c #98BC72",
"$.	c #77A833",
"%.	c #709D2F",
"&.	c #6B952D",
"*.	c #648A2A",
"=.	c #73A131",
"-.	c #7DAB34",
";.	c #DC6632",
">.	c #FDCCCE",
",.	c #FEFDFD",
"'.	c #FE505E",
").	c #FF2040",
"!.	c #FFC8AF",
"~.	c #FF6F7F",
"{.	c #FF677B",
"].	c #FF344E",
"^.	c #FED3D5",
"/.	c #E2EADA",
"(.	c #7EAB34",
"_.	c #E35E33",
":.	c #FE8D93",
"<.	c #FDF8F8",
"[.	c #FD1036",
"}.	c #FF0B36",
"|.	c #FED1B3",
"1.	c #FF4C61",
"2.	c #FF4158",
"3.	c #FF5D71",
"4.	c #FF4F65",
"5.	c #FEB6B9",
"6.	c #BCD1A8",
"7.	c #BF8533",
"8.	c #D47133",
"9.	c #B48E33",
"0.	c #90A333",
"a.	c #88A734",
"b.	c #FC1233",
"c.	c #FE7D84",
"d.	c #ED4151",
"e.	c #FF0734",
"f.	c #FF314C",
"g.	c #FF687B",
"h.	c #FF8C89",
"i.	c #FF5455",
"j.	c #FE989D",
"k.	c #8DB65E",
"l.	c #7FAA34",
"m.	c #F63133",
"n.	c #FF0133",
"o.	c #FA1D33",
"p.	c #F53032",
"q.	c #FE8088",
"r.	c #E38E93",
"s.	c #FC0033",
"t.	c #FF0C37",
"u.	c #FFC7AF",
"v.	c #FF9886",
"w.	c #FE6E77",
"x.	c #FEF8F9",
"y.	c #FDE0E1",
"z.	c #FDE9E9",
"A.	c #FEFAFB",
"B.	c #7AAC35",
"C.	c #CFC9AA",
"D.	c #86A733",
"E.	c #B48D33",
"F.	c #FF163B",
"G.	c #FF314B",
"H.	c #FE9095",
"I.	c #ECBEC0",
"J.	c #EB0030",
"K.	c #FF6176",
"L.	c #FF9D96",
"M.	c #FF6966",
"N.	c #FF2E46",
"O.	c #FCECED",
"P.	c #FD979C",
"Q.	c #FE2540",
"R.	c #FD9499",
"S.	c #FDE2E3",
"T.	c #D0DEC2",
"U.	c #CFDDC0",
"V.	c #FEE0E1",
"W.	c #A09A34",
"X.	c #E35C33",
"Y.	c #FF4F64",
"Z.	c #FF8288",
"`.	c #FF3A4E",
" +	c #FEA5AA",
".+	c #FFFEFF",
"++	c #F6E2E3",
"@+	c #D8002D",
"#+	c #FD0033",
"$+	c #FF586D",
"%+	c #FF3750",
"&+	c #FEEDEE",
"*+	c #FDECED",
"=+	c #FE4B5A",
"-+	c #FF1A3D",
";+	c #FF0B37",
">+	c #FE7F73",
",+	c #FF9B88",
"'+	c #FF1E3C",
")+	c #FCC8CA",
"!+	c #F6F8F3",
"~+	c #BD8733",
"{+	c #96A033",
"]+	c #FE0733",
"^+	c #FF5165",
"/+	c #FFD0B5",
"(+	c #FF5362",
"_+	c #FEBFC2",
":+	c #FDFBFB",
"<+	c #D73A4A",
"[+	c #EE0030",
"}+	c #FF4E63",
"|+	c #FF465D",
"1+	c #FDDCDD",
"2+	c #FE9197",
"3+	c #FF3E55",
"4+	c #FF5E72",
"5+	c #FF6478",
"6+	c #FF667A",
"7+	c #FF8484",
"8+	c #FFCCAF",
"9+	c #FF615E",
"0+	c #FF1F3D",
"a+	c #FDE8E9",
"b+	c #FEC5C8",
"c+	c #E35D33",
"d+	c #DD6633",
"e+	c #FF616E",
"f+	c #FFA39A",
"g+	c #FF5066",
"h+	c #E18E93",
"i+	c #DB002D",
"j+	c #FF3D55",
"k+	c #FEC5C7",
"l+	c #FDF4F4",
"m+	c #FF1639",
"n+	c #FF3851",
"o+	c #FF5B6F",
"p+	c #FF657A",
"q+	c #FF183C",
"r+	c #FEA3A6",
"s+	c #FEB8BA",
"t+	c #FF5C70",
"u+	c #FF576C",
"v+	c #FDEBEC",
"w+	c #ECC0C1",
"x+	c #D4002C",
"y+	c #F30031",
"z+	c #FF2242",
"A+	c #FF6175",
"B+	c #FEAFB3",
"C+	c #FED8D9",
"D+	c #FF0935",
"E+	c #FEAD96",
"F+	c #FF5656",
"G+	c #FF0F38",
"H+	c #FF4A60",
"I+	c #FF576B",
"J+	c #FF4B5A",
"K+	c #FDFDFD",
"L+	c #FEABAE",
"M+	c #FF0735",
"N+	c #FF6579",
"O+	c #FF596E",
"P+	c #FEFBFC",
"Q+	c #F7E5E6",
"R+	c #E1002E",
"S+	c #FF0234",
"T+	c #FE9097",
"U+	c #FEBDC0",
"V+	c #FF5757",
"W+	c #FEAD97",
"X+	c #FF1E3A",
"Y+	c #FF566B",
"Z+	c #FF3951",
"`+	c #FEEAEB",
" @	c #FE9A9E",
".@	c #FF9583",
"+@	c #FE9D8A",
"@@	c #FE7D85",
"#@	c #FEFCFD",
"$@	c #D84955",
"%@	c #E38778",
"&@	c #FE5A59",
"*@	c #FF6B75",
"=@	c #FEFEFF",
"-@	c #FEA1A5",
";@	c #FF3A52",
">@	c #FF5D72",
",@	c #FED2D4",
"'@	c #FE8289",
")@	c #FFA48F",
"!@	c #FEC8AB",
"~@	c #FF5166",
"{@	c #FEA9AD",
"]@	c #E3969B",
"^@	c #E48E7D",
"/@	c #FBA28D",
"(@	c #FF3F57",
"_@	c #FF485C",
":@	c #FF2541",
"<@	c #FEFCFC",
"[@	c #FE7B83",
"}@	c #FF364F",
"|@	c #FDB5B8",
"1@	c #FF6E77",
"2@	c #FF3946",
"3@	c #FF625E",
"4@	c #FF475D",
"5@	c #FECBCD",
"6@	c #EEC7C9",
"7@	c #D5012D",
"8@	c #D81431",
"9@	c #FE0033",
"0@	c #FF9685",
"a@	c #FEECED",
"b@	c #FF4555",
"c@	c #FE8074",
"d@	c #FF1638",
"e@	c #FF586C",
"f@	c #FE9499",
"g@	c #FF2E4A",
"h@	c #FF374F",
"i@	c #F8ECED",
"j@	c #D5002D",
"k@	c #F10030",
"l@	c #FF2644",
"m@	c #FF8C85",
"n@	c #FF9584",
"o@	c #FED9DB",
"p@	c #FEF4F5",
"q@	c #FFC9AC",
"r@	c #FF645F",
"s@	c #FF455B",
"t@	c #FE5A67",
"u@	c #FF0836",
"v@	c #FF4B5B",
"w@	c #FEFDFC",
"x@	c #DB626A",
"y@	c #E0002E",
"z@	c #FF5469",
"A@	c #FDC0C3",
"B@	c #FEE1E2",
"C@	c #FE8678",
"D@	c #FF494D",
"E@	c #FF2B47",
"F@	c #FF354F",
"G@	c #FDF1F1",
"H@	c #FEEEEF",
"I@	c #FF0435",
"J@	c #FF6276",
"K@	c #FF5C71",
"L@	c #FE8E94",
"M@	c #E6A7AA",
"N@	c #D5002C",
"O@	c #FA0032",
"P@	c #FF0835",
"Q@	c #FF304B",
"R@	c #FF6377",
"S@	c #FF445A",
"T@	c #FED4D6",
"U@	c #FEE4E5",
"V@	c #FF334D",
"W@	c #FF898B",
"X@	c #FF8B8C",
"Y@	c #FEBCBF",
"Z@	c #F2D5D6",
"`@	c #EB002F",
" #	c #FE7C83",
".#	c #FF5267",
"+#	c #FFA99D",
"@#	c #FF8388",
"##	c #FDAAAE",
"$#	c #FF677C",
"%#	c #FFB9A6",
"&#	c #FFBBA8",
"*#	c #FF324C",
"=#	c #FEE0E2",
"-#	c #FCF6F6",
";#	c #D6223A",
">#	c #FF8C88",
",#	c #FF868A",
"'#	c #FE3A4E",
")#	c #FDFCFB",
"!#	c #FF8C93",
"~#	c #FF726A",
"{#	c #FF3D48",
"]#	c #FF2D49",
"^#	c #FFB0A1",
"/#	c #FFD4B7",
"(#	c #FF435A",
"_#	c #FE646E",
":#	c #FEBEC1",
"<#	c #FF0635",
"[#	c #FF6378",
"}#	c #FF6C7C",
"|#	c #FF344A",
"1#	c #FDFAFA",
"2#	c #E08489",
"3#	c #D4002D",
"4#	c #F70032",
"5#	c #FE9D8C",
"6#	c #FFCBB2",
"7#	c #FEE8E9",
"8#	c #FF4858",
"9#	c #FFC0A5",
"0#	c #FE8C7C",
"a#	c #FF938F",
"b#	c #FF2342",
"c#	c #FDE6E7",
"d#	c #FEA5A9",
"e#	c #FF0233",
"f#	c #FFD4B5",
"g#	c #FF4049",
"h#	c #FF324D",
"i#	c #FE878E",
"j#	c #EBBDBF",
"k#	c #E9002F",
"l#	c #FF2744",
"m#	c #FF4C62",
"n#	c #FEC4C6",
"o#	c #FF4F52",
"p#	c #FF2D40",
"q#	c #FEA9AE",
"r#	c #FEFEFD",
"s#	c #FE777F",
"t#	c #FEAB95",
"u#	c #FE6963",
"v#	c #FF495F",
"w#	c #FEBBBE",
"x#	c #F7E7E8",
"y#	c #D4002B",
"z#	c #E18374",
"A#	c #E5766B",
"B#	c #FF576D",
"C#	c #FF5A6F",
"D#	c #FE7880",
"E#	c #FD9DA1",
"F#	c #F40031",
"G#	c #E7002F",
"H#	c #FF6174",
"I#	c #FDC6C8",
"J#	c #FF1239",
"K#	c #FF2C47",
"L#	c #FDE1E2",
"M#	c #DA5C65",
"N#	c #DC615B",
"O#	c #F3C3A7",
"P#	c #FF4F63",
"Q#	c #D6002D",
"R#	c #E6002F",
"S#	c #FF4152",
"T#	c #E7A9AC",
"U#	c #FF3C54",
"V#	c #D7002C",
"W#	c #FF1B3D",
"X#	c #FF3D54",
"Y#	c #FF5B70",
"Z#	c #FE9398",
"`#	c #F3D9DA",
" $	c #DF002E",
".$	c #DA002D",
"+$	c #D0002B",
"@$	c #D50C2F",
"#$	c #FCA08C",
"$$	c #FF5167",
"%$	c #FF2A46",
"&$	c #D73D4C",
"*$	c #F90032",
"=$	c #D2002C",
"-$	c #AA0024",
";$	c #C8062A",
">$	c #FCD4B5",
",$	c #FF2442",
"'$	c #E39A9E",
")$	c #FE736A",
"!$	c #FF4D51",
"~$	c #C50029",
"{$	c #A60024",
"]$	c #BC0027",
"^$	c #E86861",
"/$	c #FE626D",
"($	c #F1D1D2",
"_$	c #EA002F",
":$	c #FEB39B",
"<$	c #FF8275",
"[$	c #FF5354",
"}$	c #E3002E",
"|$	c #B80027",
"1$	c #A70024",
"2$	c #B20026",
"3$	c #FF6963",
"4$	c #FF3F49",
"5$	c #FF414A",
"6$	c #FEAAAE",
"7$	c #FBF7F7",
"8$	c #D63042",
"9$	c #DD002E",
"0$	c #FF2B3F",
"a$	c #FF0E36",
"b$	c #FEA38F",
"c$	c #FEDABA",
"d$	c #D7042D",
"e$	c #AC0024",
"f$	c #A90024",
"g$	c #FB0032",
"h$	c #FF5254",
"i$	c #FFE1C0",
"j$	c #FF444B",
"k$	c #FF1537",
"l$	c #FECDAF",
"m$	c #FEA48F",
"n$	c #F8D9DA",
"o$	c #E2969A",
"p$	c #FF8879",
"q$	c #F57268",
"r$	c #A60023",
"s$	c #C08084",
"t$	c #CE002B",
"u$	c #EF0030",
"v$	c #FEAA94",
"w$	c #FF4E51",
"x$	c #FF233C",
"y$	c #FFB49C",
"z$	c #FE3543",
"A$	c #E53547",
"B$	c #FCF9F9",
"C$	c #F1D2D4",
"D$	c #E6002E",
"E$	c #C9002A",
"F$	c #A60224",
"G$	c #F3EAEB",
"H$	c #B04E56",
"I$	c #E29397",
"J$	c #FDF9F9",
"K$	c #D7414F",
"L$	c #F60031",
"M$	c #C10028",
"N$	c #BA7176",
"O$	c #FDFEFE",
"P$	c #D2ADAF",
"Q$	c #BE0027",
"R$	c #F00030",
"S$	c #EFCACC",
"T$	c #E6A5A9",
"U$	c #D8B8BA",
"V$	c #F1E6E6",
"W$	c #B40026",
"X$	c #D51834",
"Y$	c #FBF3F3",
"Z$	c #F6E3E4",
"`$	c #D4012D",
" %	c #F50031",
".%	c #B60026",
"+%	c #F1E7E8",
"@%	c #C17D81",
"#%	c #DF8389",
"$%	c #DD787E",
"%%	c #D84045",
"&%	c #D5082E",
"*%	c #E8002F",
"=%	c #C4686E",
"-%	c #E4D0D1",
";%	c #EA0A31",
">%	c #FD0233",
",%	c #DD002D",
"'%	c #EDC4C6",
")%	c #F0CFD0",
"!%	c #F3C0A5",
"~%	c #F0BAA0",
"{%	c #D6303C",
"]%	c #DB5A57",
"^%	c #E4B8BA",
"/%	c #FDFCFD",
"(%	c #D37076",
"_%	c #ECAC94",
":%	c #F1B39A",
"<%	c #E5002F",
"[%	c #DA5956",
"}%	c #D84649",
"|%	c #D51C36",
"1%	c #FBF2F2",
"2%	c #DC6C74",
"3%	c #D94C4D",
"4%	c #E48D7C",
"5%	c #D51732",
"6%	c #F7CEB0",
"7%	c #EBA992",
"8%	c #D51734",
"9%	c #F9EEEE",
"0%	c #F3DBDC",
"a%	c #D4022D",
"b%	c #DA5754",
"c%	c #FCDDBC",
"d%	c #DB5D58",
"e%	c #D52035",
"f%	c #F9D5B6",
"g%	c #E07C6F",
"h%	c #E28F94",
"i%	c #F4DEDF",
"j%	c #D51F37",
"k%	c #D50A2E",
"l%	c #E28677",
"m%	c #D50B2F",
"n%	c #E8AEB1",
"o%	c #E49DA0",
"p%	c #D84549",
"q%	c #D5052E",
"r%	c #D62B3A",
"s%	c #D63D4B",
"t%	c #F6E6E7",
"u%	c #F4DFE0",
"v%	c #E29599",
"w%	c #D63446",
"x%	c #DB636B",
"y%	c #EEC9CA",
"z%	c #FCFAFA",
"A%	c #EBC0C2",
"B%	c #DD7077",
"C%	c #D4042D",
"D%	c #D51B36",
"E%	c #E19296",
"F%	c #F7E8E9",
"G%	c #FEFFFF",
"H%	c #F7E6E7",
"I%	c #F2D1D2",
"J%	c #EEC6C8",
"K%	c #F2D3D5",
"L%	c #F8EBEC",
"M%	c #FAF2F2",
"N%	c #F4DCDD",
"O%	c #F0CBCD",
"P%	c #EEC5C7",
"Q%	c #EFCBCC",
"R%	c #F4DCDE",
"S%	c #FBF5F6",
"                                                                                                                                ",
"                                                                                                                                ",
"                                                                                                                                ",
"                                                                                                                                ",
"                                                                                                                                ",
"                                                                                                                                ",
"                                                                                                                                ",
"                                                                                                                                ",
"                                                                                  . + @                                         ",
"                                                                                  # $ % & *                                     ",
"                                                                                * = - ; > , * ' ) ! ~ { ] ^ / ( _               ",
"                                                                                  * ' : < [ } | 1 2 $ 2 $ 3 4 5                 ",
"                      * * 6 7 8 *                                                         9 0 a b $ $ $ c d e f _               ",
"                * g h i j k k l m n o                                                   p q r s t > $ $ u v w x y               ",
"              z A B C D E F G H I C J *                                               K L M N M N > O P Q R j S T               ",
"              U C V W X Y Y Y Z `  ...+.                                            @.#.$.%.&.*.=.$ -.;.C C C C >.              ",
"            ,.'.C ).!.~.Y Y Y Y {.].V ^.                                            /.$ $ $ > 2 $ $ $ (._.C C C :.*             ",
"            <.[.C }.|.1.2.3.Y Y Y 4.C 5.                                          * 6.$ $ $ $ 7.8.9.0.u a.b.C C c.*             ",
"            ,.d.C C e.C C f.g.Y Y h.i.j.*                                         T k.$ $ $ l.m.C C n.o.p.C C C q.*             ",
"              r.s.C C C C t.{.Y g.u.v.w.*               * x.g y.z.A.*             9 B.C.D.$ E.C C C C C F.G.C C H.*             ",
"              I.J.C C C C C K.Y Y L.M.N.,.            O.P.Q.C C V j R.S.*         T.U.V.W.> X.C C C C C Y.Z.`.C  +.+            ",
"              ++@+#+C C C C $+Y Y g.%+..&+          *+=+C C  .-+;+>+,+'+)+*       !+* ^.~+{+]+C C C C C ^+/+(+C _+              ",
"              :+<+[+C C C C }+Y Y Y |+V 1+        * 2+V 3+4+5+Y 6+7+8+9+0+a+          b+c+d+C C C C C C e+f+g+V ^.              ",
"              * h+i+V C C C j+Y Y Y F V k+        l+m+C n+o+p+Y Y Y 4+q+C r+*         s+C C C C C C C C t+Y u+n.v+              ",
"                w+x+y+C C C z+{.Y Y A+V B+        C+C D+E+F+G+H+Y Y Y I+V J+K+        L+C C C C C C C M+N+Y O+N.P+              ",
"                Q+x+R+V C C V 3.Y Y 6+S+T+        U+C V+W+X+C V Y+Y Y {.Z+V `+         @C .@+@C C C C G.{.Y u+@@*               ",
"                #@$@%@&@C C C n+{.Y A+V *@*     =@-@C C C C C C ;@Y Y Y >@S+,@        '@C )@!@C C C C 1.Y Y ~@{@y               ",
"                * ]@^@/@C C C C (@X _@D+:@<@    * [@C C C C C C G+6+Y Y {.}@|@      * 1@C 2@3@C C C C X Y Y 4@5@                ",
"                  6@7@8@9@C C C C V E+0@V a@    ,.b@C C C C C c@d@e@Y Y Y F f@      * J+C C C C C C g@Y Y g.h@`+                ",
"                  i@x+j@k@C C C C l@m@n@V o@    p@V C C C C C q@r@s@Y Y Y N+t@*     A.u@C C C C C C }+Y Y {.v@w@                ",
"                  * x@j@y@C C C V A+Y z@V A@    B@V C C C C C C@D@E@g.Y Y Y F@G@    H@..C C C C C I@J@Y Y K@L@                  ",
"                    M@j@N@O@C C P@{.Y {.Q@ +    >.C C C C C C C C S+R@Y Y Y S@T@    U@C C C C C C V@{.W@X@H+Y@                  ",
"                    Z@j@j@`@C C  .p+Y Y z@ #*   B+C C C C C C C C V .#{.+#@#H+##y   ,@C C C C C C g+$#%#&#*#=#                  ",
"                    -#;#j@i+V C V >#,#Y N+'#)#* !#C ~#{#C C C C C C ]#{.^#/#(#_#*   :#C C D+C C <#[#Y ~.}#|#1#                  ",
"                    * 2#j@3#4#C V 5#6#Y {.n+7#,.8#C 9#0#C C C C C C V Y.g.a#b#V c#* d#C e#f#g#C h#{.Y Y Y+i#*                   ",
"                      j#3#x+k#C C l#g.Y Y m#n#c#V C o#p#C C C C C C C S+*#E@~@~@q#r#s#C C t#u#C v#Y Y Y s@w#                    ",
"                      x#y#z#A#V C V B#Y Y C#D#E#C C C C C C C F#G#s.C C V ~@Y Y H#I#J#C C C C C Y+Y Y {.K#L#                    ",
"                      * M#N#O#4#C C W {.$#P#C C C C C C C C O@Q#j@R#C C C g+Y Y K.V C C C C C C K@Y Y 5+S#P+                    ",
"                        T#j@j@`@C C C Q@U#<#C C C C C C C C k#j@j@V#9@C C W#$+J@X#C C C C C C C Y#Y Y .#Z#*                     ",
"                        `#x+j@ $C C C C C C C C C C C C C V .$j@+$@$#$V C C C C C C C C C C C C $$Y {.%$k+                      ",
"                        1#&$j@N@#+C C C C C C C C C C C C *$x+=$-$;$>$..C C C C C C C C C C C C ,$u+2...v+                      ",
"                        * '$j@j@y+C C C )$!$C C C C C C C [+j@~${$]$^$V C C C C C C C C C C C C C C C /$*                       ",
"                          ($x+j@_$C C C :$<$C C C C C P@[$}$x+|$1$2$i+V C C C C d@3$C C C C C C 4$5$C 6$*                       ",
"                          7$8$j@9$V C C 0$a$C C C C C b$c$d$N@e$1$f$x+g$C C C C h$i$j$C C C C k$l$m$#+n$                        ",
"                          * o$j@x+*$C C C C C C C C C p$q$N@+$r$s$r$t$u$C C C C V v$w$C C C C x$y$z$A$B$                        ",
"                            C$N@j@D$V C C C C C C C C C G#j@E$F$G$H$~$R+C C C C C C C C C C C C V J.I$'                         ",
"                            J$K$j@j@L$C C C C C C C C #+V#j@M$N$O$P$Q$x+*$C C C C C C C C C C V R$x+S$                          ",
"                              T$j@j@.$g$C C C C C C V G#j@j@]$U$  V$W$3#}$C C C C C C C C C V R$N@X$Y$                          ",
"                              Z$`$j@j@.$ %C C C C 9@k#x+j@j@.%+%  * @%x+j@[+C C C C C C C 9@k#N@j@#%*                           ",
"                              ,.$%j@%%&%N@ $J.[+*%.$j@j@j@j@=%*     -%t$j@N@;%>%C C C V F#,%3#j@j@'%                            ",
"                                )%x+!%~%j@j@j@j@j@j@{%]%j@j@^%      /%(%j@j@_%:%}$k#<%i+j@j@[%}%|%1%                            ",
"                                z 2%3%4%j@j@j@j@j@5%6%7%j@8%9%        0%a%j@b%c%d%j@j@j@j@e%f%g%h%*                             ",
"                                  i%j%j@j@j@j@j@j@k%l%m%N@n%*         * o%j@j@p%q%j@j@j@j@r%7%s%t%                              ",
"                                  * u%v%w%j@j@j@j@j@x+x%y%*             z%A%B%C%j@j@j@j@j@D%E%F%G%                              ",
"                                      * 1#H%I%J%6@K%L%*                     ' M%N%O%P%Q%R%S%'                                   ",
"                                                                                                                                ",
"                                                                                                                                ",
"                                                                                                                                ",
"                                                                                                                                ",
"                                                                                                                                ",
"                                                                                                                                ",
"                                                                                                                                ",
"                                                                                                                                ",
"                                                                                                                                "};
