/* XPM */
static char * e_letter_xpm[] = {
"64 64 29 1",
" 	c #FFFFFF",
".	c #FEFEFE",
"+	c #FDFDFD",
"@	c #999999",
"#	c #969696",
"$	c #A5A5A5",
"%	c #262626",
"&	c #000000",
"*	c #595959",
"=	c #171717",
"-	c #797979",
";	c #4B4B4B",
">	c #353535",
",	c #BABABA",
"'	c #B9B9B9",
")	c #E5E5E5",
"!	c #CACACA",
"~	c #040404",
"{	c #1D1D1D",
"]	c #CBCBCB",
"^	c #FCFCFC",
"/	c #3D3D3D",
"(	c #D2D2D2",
"_	c #D3D3D3",
":	c #E8E8E8",
"<	c #B5B5B5",
"[	c #EBEBEB",
"}	c #EAEAEA",
"|	c #F4F4F4",
"                                                                ",
"                                                                ",
"                                                                ",
"                                                                ",
"                                                                ",
"                                                                ",
"                                                                ",
"                                                                ",
"                                                                ",
"                                                                ",
"                ..                           ..                 ",
"                +@###########################$+                 ",
"                .%&&&&&&&&&&&&&&&&&&&&&&&&&&&*.                 ",
"                .%&&&&&&&&&&&&&&&&&&&&&&&&&&&*.                 ",
"                .%&&&&&&&&&&&&&&&&&&&&&&&&&&&*.                 ",
"                .%&&&&&&&&&&&&&&&&&&&&&&&&&&&*.                 ",
"                .%&&&&&&&&&&&&&&&&&&&&&&&&&&&*.                 ",
"                .%&&&&&&=********************-+                 ",
"                .%&&&&&&;+.....................                 ",
"                .%&&&&&&;.                                      ",
"                .%&&&&&&;.                                      ",
"                .%&&&&&&;.                                      ",
"                .%&&&&&&;.                                      ",
"                .%&&&&&&;.                                      ",
"                .%&&&&&&;.                                      ",
"                .%&&&&&&;.                                      ",
"                .%&&&&&&>,,,,,,,,,,,,,,,,,,')                   ",
"                .%&&&&&&&&&&&&&&&&&&&&&&&&&&!                   ",
"                .%&&&&&&&&&&&&&&&&&&&&&&&&&&!                   ",
"                .%&&&&&&&&&&&&&&&&&&&&&&&&&&!                   ",
"                .%&&&&&&&&&&&&&&&&&&&&&&&&&&!                   ",
"                .%&&&&&&&&&&&&&&&&&&&&&&&&&&!                   ",
"                .%&&&&&&~{{{{{{{{{{{{{{{{{{{]                   ",
"                .%&&&&&&;^++++++++++++++++++.                   ",
"                .%&&&&&&;.                                      ",
"                .%&&&&&&;.                                      ",
"                .%&&&&&&;.                                      ",
"                .%&&&&&&;.                                      ",
"                .%&&&&&&;.                                      ",
"                .%&&&&&&;.                                      ",
"                .%&&&&&&;.                                      ",
"                .%&&&&&&;.                                      ",
"                .%&&&&&&;.                                      ",
"                .%&&&&&&/(____________________:                 ",
"                .%&&&&&&&&&&&&&&&&&&&&&&&&&&&&<                 ",
"                .%&&&&&&&&&&&&&&&&&&&&&&&&&&&&<                 ",
"                .%&&&&&&&&&&&&&&&&&&&&&&&&&&&&<                 ",
"                .%&&&&&&&&&&&&&&&&&&&&&&&&&&&&<                 ",
"                .%&&&&&&&&&&&&&&&&&&&&&&&&&&&&<                 ",
"                .%&&&&&&&&&&&&&&&&&&&&&&&&&&&&<                 ",
"                .[[[[[[[[[[[[[[[[[[[[[[[[[[[[}|                 ",
"                                                                ",
"                                                                ",
"                                                                ",
"                                                                ",
"                                                                ",
"                                                                ",
"                                                                ",
"                                                                ",
"                                                                ",
"                                                                ",
"                                                                ",
"                                                                ",
"                                                                "};
