/* XPM */
static char * eee_letter_xpm[] = {
"64 64 654 2",
"  	c #1F2121",
". 	c #262828",
"+ 	c #2B2D2D",
"@ 	c #252626",
"# 	c #262727",
"$ 	c #242727",
"% 	c #262929",
"& 	c #2A2C2C",
"* 	c #272A2A",
"= 	c #242626",
"- 	c #202323",
"; 	c #202222",
"> 	c #222525",
", 	c #242828",
"' 	c #232626",
") 	c #252727",
"! 	c #262A2A",
"~ 	c #282A2A",
"{ 	c #252828",
"] 	c #232525",
"^ 	c #2C2E2E",
"/ 	c #292C2C",
"( 	c #232625",
"_ 	c #202322",
": 	c #222424",
"< 	c #212424",
"[ 	c #1E1E1E",
"} 	c #1C1D1D",
"| 	c #1F1F1F",
"1 	c #1D1F1F",
"2 	c #292B2B",
"3 	c #2B2E2E",
"4 	c #2D2F2F",
"5 	c #1E1F1F",
"6 	c #262827",
"7 	c #282B2B",
"8 	c #242525",
"9 	c #1F2020",
"0 	c #2E3131",
"a 	c #333737",
"b 	c #2A2D2D",
"c 	c #333635",
"d 	c #343737",
"e 	c #373B3B",
"f 	c #3D4040",
"g 	c #3C3F3F",
"h 	c #3E4141",
"i 	c #414444",
"j 	c #3E4241",
"k 	c #353938",
"l 	c #323535",
"m 	c #343838",
"n 	c #393D3D",
"o 	c #383D3D",
"p 	c #393C3C",
"q 	c #333636",
"r 	c #323434",
"s 	c #1C1E1E",
"t 	c #252929",
"u 	c #2D3130",
"v 	c #313535",
"w 	c #373A3A",
"x 	c #383B3B",
"y 	c #363A3A",
"z 	c #343939",
"A 	c #313636",
"B 	c #2D3131",
"C 	c #2C2F2F",
"D 	c #2B2F2F",
"E 	c #2F3131",
"F 	c #2B2E2D",
"G 	c #303333",
"H 	c #353838",
"I 	c #313434",
"J 	c #272B2B",
"K 	c #161616",
"L 	c #2A2B2B",
"M 	c #292D2C",
"N 	c #2F3232",
"O 	c #282B2A",
"P 	c #1B1D1C",
"Q 	c #2F3333",
"R 	c #323636",
"S 	c #3A3D3D",
"T 	c #434747",
"U 	c #484D4C",
"V 	c #4B4F4F",
"W 	c #4E5353",
"X 	c #525656",
"Y 	c #545858",
"Z 	c #575A5A",
"` 	c #595C5C",
" .	c #4B504F",
"..	c #4B4E4E",
"+.	c #4C4F4F",
"@.	c #4D5252",
"#.	c #4A4E4E",
"$.	c #424545",
"%.	c #333535",
"&.	c #2E3030",
"*.	c #212323",
"=.	c #333837",
"-.	c #454A4A",
";.	c #494E4D",
">.	c #494D4D",
",.	c #464C4C",
"'.	c #3D4242",
").	c #3E4342",
"!.	c #3B4040",
"~.	c #3E4343",
"{.	c #404544",
"].	c #444847",
"^.	c #474B4B",
"/.	c #414646",
"(.	c #3B3E3E",
"_.	c #454848",
":.	c #4C5050",
"<.	c #282C2C",
"[.	c #1A1A1A",
"}.	c #292A2A",
"|.	c #323232",
"1.	c #363B3B",
"2.	c #353939",
"3.	c #3F4443",
"4.	c #353737",
"5.	c #3A3E3E",
"6.	c #3D4141",
"7.	c #505555",
"8.	c #595E5E",
"9.	c #5F6363",
"0.	c #5B6060",
"a.	c #5B6161",
"b.	c #5E6262",
"c.	c #5F6262",
"d.	c #5D6060",
"e.	c #585C5C",
"f.	c #575B5B",
"g.	c #5C5F5F",
"h.	c #5C6060",
"i.	c #5E6363",
"j.	c #5D6161",
"k.	c #585D5D",
"l.	c #494E4E",
"m.	c #303434",
"n.	c #2E3232",
"o.	c #383C3C",
"p.	c #464B4A",
"q.	c #535757",
"r.	c #585E5D",
"s.	c #5D6262",
"t.	c #5A5F5F",
"u.	c #515656",
"v.	c #4F5453",
"w.	c #4E5252",
"x.	c #4C5151",
"y.	c #515757",
"z.	c #575C5C",
"A.	c #565C5B",
"B.	c #5A5E5E",
"C.	c #4E5151",
"D.	c #4A4D4D",
"E.	c #505454",
"F.	c #555958",
"G.	c #252827",
"H.	c #292E2E",
"I.	c #474949",
"J.	c #484D4D",
"K.	c #616565",
"L.	c #4F5353",
"M.	c #474A4A",
"N.	c #404545",
"O.	c #242726",
"P.	c #363838",
"Q.	c #616666",
"R.	c #565A5A",
"S.	c #565959",
"T.	c #595D5D",
"U.	c #5B5F5F",
"V.	c #5A5F5E",
"W.	c #424646",
"X.	c #4B5050",
"Y.	c #4F5554",
"Z.	c #575E5E",
"`.	c #565B5B",
" +	c #595F5F",
".+	c #535656",
"++	c #555B5B",
"@+	c #393B3B",
"#+	c #1E2020",
"$+	c #303535",
"%+	c #373B3A",
"&+	c #555B5A",
"*+	c #555858",
"=+	c #666A6A",
"-+	c #555959",
";+	c #434949",
">+	c #272A29",
",+	c #313433",
"'+	c #4F5454",
")+	c #626767",
"!+	c #5A6060",
"~+	c #515858",
"{+	c #494F4F",
"]+	c #515555",
"^+	c #595E5D",
"/+	c #585D5C",
"(+	c #2C2D2D",
"_+	c #363939",
":+	c #454949",
"<+	c #424747",
"[+	c #434848",
"}+	c #4D5454",
"|+	c #505857",
"1+	c #555C5B",
"2+	c #646868",
"3+	c #4E5454",
"4+	c #4D5353",
"5+	c #222323",
"6+	c #3B3F3F",
"7+	c #565B5A",
"8+	c #4B5150",
"9+	c #5F6464",
"0+	c #4F5555",
"a+	c #4A4F4F",
"b+	c #545959",
"c+	c #2D3030",
"d+	c #545A5A",
"e+	c #545B5B",
"f+	c #575E5D",
"g+	c #565C5C",
"h+	c #535959",
"i+	c #4B5252",
"j+	c #505656",
"k+	c #494C4C",
"l+	c #313333",
"m+	c #444848",
"n+	c #565958",
"o+	c #484E4D",
"p+	c #545A59",
"q+	c #464A4A",
"r+	c #5D6363",
"s+	c #585E5E",
"t+	c #525858",
"u+	c #4F5151",
"v+	c #3F4242",
"w+	c #555A5A",
"x+	c #575D5D",
"y+	c #545B5A",
"z+	c #535A5A",
"A+	c #4E5554",
"B+	c #4E5453",
"C+	c #4A504F",
"D+	c #3C4040",
"E+	c #2E2F2F",
"F+	c #525757",
"G+	c #5E6161",
"H+	c #585C5B",
"I+	c #404444",
"J+	c #272828",
"K+	c #484C4C",
"L+	c #676B6B",
"M+	c #626868",
"N+	c #5C6161",
"O+	c #535958",
"P+	c #535A59",
"Q+	c #484E4E",
"R+	c #414343",
"S+	c #1C1C1C",
"T+	c #1D1E1E",
"U+	c #535858",
"V+	c #565D5C",
"W+	c #4B5151",
"X+	c #4D5352",
"Y+	c #404343",
"Z+	c #343636",
"`+	c #575D5C",
" @	c #575B5A",
".@	c #3F4343",
"+@	c #565D5D",
"@@	c #464B4B",
"#@	c #48504F",
"$@	c #4C5453",
"%@	c #1A1B1A",
"&@	c #2A2E2E",
"*@	c #414747",
"=@	c #4C5352",
"-@	c #464949",
";@	c #393D3C",
">@	c #222222",
",@	c #454B4A",
"'@	c #535857",
")@	c #5A5D5D",
"!@	c #414545",
"~@	c #4B5251",
"{@	c #454C4C",
"]@	c #4A5151",
"^@	c #444A4A",
"/@	c #2D302F",
"(@	c #3D3F3F",
"_@	c #3C3E3E",
":@	c #272929",
"<@	c #1A1C1B",
"[@	c #1B1C1C",
"}@	c #323838",
"|@	c #2E3231",
"1@	c #373C3C",
"2@	c #303232",
"3@	c #1B1D1D",
"4@	c #444949",
"5@	c #313232",
"6@	c #252525",
"7@	c #2F3332",
"8@	c #3C4141",
"9@	c #313534",
"0@	c #202121",
"a@	c #1B1B1B",
"b@	c #1A1C1C",
"c@	c #282929",
"d@	c #262928",
"e@	c #222625",
"f@	c #202221",
"g@	c #1B1E1D",
"h@	c #1D1D1D",
"i@	c #313635",
"j@	c #4B4F4E",
"k@	c #404646",
"l@	c #343535",
"m@	c #232424",
"n@	c #323737",
"o@	c #2C3030",
"p@	c #2E3130",
"q@	c #191A1A",
"r@	c #161717",
"s@	c #1A1B1B",
"t@	c #272928",
"u@	c #3D4140",
"v@	c #1D2121",
"w@	c #1D201F",
"x@	c #333736",
"y@	c #3A3F3E",
"z@	c #212222",
"A@	c #474C4C",
"B@	c #464C4B",
"C@	c #474D4D",
"D@	c #2B2C2C",
"E@	c #303332",
"F@	c #383A3A",
"G@	c #4C504F",
"H@	c #3E4242",
"I@	c #202424",
"J@	c #1B1E1E",
"K@	c #393E3D",
"L@	c #424848",
"M@	c #444B4A",
"N@	c #4D5151",
"O@	c #2A2D2C",
"P@	c #2E3332",
"Q@	c #2D2E2E",
"R@	c #2D3232",
"S@	c #2C302F",
"T@	c #3A3E3D",
"U@	c #4E5251",
"V@	c #4D5251",
"W@	c #2F3231",
"X@	c #3F4544",
"Y@	c #494B4B",
"Z@	c #2A2A2A",
"`@	c #292C2B",
" #	c #5B6160",
".#	c #646969",
"+#	c #636867",
"@#	c #676E6D",
"##	c #5D6464",
"$#	c #282828",
"%#	c #5C6261",
"&#	c #353A3A",
"*#	c #232727",
"=#	c #424949",
"-#	c #3D4241",
";#	c #3D4342",
">#	c #3A3F3F",
",#	c #343837",
"'#	c #2F3434",
")#	c #3F4444",
"!#	c #515454",
"~#	c #626464",
"{#	c #616464",
"]#	c #545757",
"^#	c #505353",
"/#	c #5E6666",
"(#	c #656E6D",
"_#	c #616767",
":#	c #494F4E",
"<#	c #4F5252",
"[#	c #393E3E",
"}#	c #606464",
"|#	c #595D5C",
"1#	c #626B6B",
"2#	c #5E6565",
"3#	c #515756",
"4#	c #2A2F2F",
"5#	c #444747",
"6#	c #5B5E5E",
"7#	c #2D2F2E",
"8#	c #4A4E4D",
"9#	c #555C5C",
"0#	c #606363",
"a#	c #545958",
"b#	c #586060",
"c#	c #585B5B",
"d#	c #616868",
"e#	c #444A49",
"f#	c #414746",
"g#	c #474C4B",
"h#	c #4A5050",
"i#	c #606767",
"j#	c #505655",
"k#	c #5E6464",
"l#	c #5C6363",
"m#	c #1E2222",
"n#	c #2E3333",
"o#	c #3E4444",
"p#	c #575C5B",
"q#	c #666969",
"r#	c #424444",
"s#	c #353837",
"t#	c #292D2D",
"u#	c #454A49",
"v#	c #4C5150",
"w#	c #5F6565",
"x#	c #3B3F3E",
"y#	c #585F5F",
"z#	c #636868",
"A#	c #1F2222",
"B#	c #4F5352",
"C#	c #363B3A",
"D#	c #2B3030",
"E#	c #626565",
"F#	c #242928",
"G#	c #3B403F",
"H#	c #4C5252",
"I#	c #5B6262",
"J#	c #333838",
"K#	c #5A605F",
"L#	c #333434",
"M#	c #2C3131",
"N#	c #636969",
"O#	c #252928",
"P#	c #434948",
"Q#	c #636767",
"R#	c #666C6C",
"S#	c #333938",
"T#	c #383D3C",
"U#	c #3A3C3C",
"V#	c #606565",
"W#	c #5A6161",
"X#	c #2D3231",
"Y#	c #646A6A",
"Z#	c #656A6A",
"`#	c #676D6D",
" $	c #383E3D",
".$	c #232323",
"+$	c #515857",
"@$	c #515655",
"#$	c #282928",
"$$	c #3B4140",
"%$	c #424645",
"&$	c #2E3433",
"*$	c #3C4242",
"=$	c #434A49",
"-$	c #495050",
";$	c #434A4A",
">$	c #636666",
",$	c #282A29",
"'$	c #424948",
")$	c #474B4A",
"!$	c #373C3B",
"~$	c #3F4545",
"{$	c #4E5352",
"]$	c #596060",
"^$	c #505756",
"/$	c #404747",
"($	c #454B4B",
"_$	c #666B6B",
":$	c #606868",
"<$	c #2F3030",
"[$	c #5F6767",
"}$	c #6D7575",
"|$	c #4E5555",
"1$	c #555A59",
"2$	c #424746",
"3$	c #444948",
"4$	c #1D2020",
"5$	c #494C4B",
"6$	c #525555",
"7$	c #5C6262",
"8$	c #3F4141",
"9$	c #484C4B",
"0$	c #434646",
"a$	c #191C1C",
"b$	c #696D6D",
"c$	c #606867",
"d$	c #3E4443",
"e$	c #606666",
"f$	c #484A4A",
"g$	c #1E2121",
"h$	c #6F7272",
"i$	c #242424",
"j$	c #4E5050",
"k$	c #6C7170",
"l$	c #4C5353",
"m$	c #212525",
"n$	c #3C3F3E",
"o$	c #181A1A",
"p$	c #222626",
"q$	c #474D4C",
"r$	c #1C1F1E",
"s$	c #202020",
"t$	c #585B5A",
"u$	c #2B2F2E",
"v$	c #1A1D1C",
"w$	c #212322",
"x$	c #393F3F",
"y$	c #383939",
"z$	c #565A59",
"A$	c #414645",
"B$	c #4D5050",
"C$	c #1F2323",
"D$	c #373939",
"E$	c #303635",
"F$	c #363A39",
"G$	c #313334",
"H$	c #646968",
"I$	c #292E2D",
"J$	c #353B3B",
"K$	c #323534",
"L$	c #353636",
"M$	c #191B1B",
"N$	c #2C2F2E",
"O$	c #616766",
"P$	c #696F6F",
"Q$	c #6B7170",
"R$	c #676C6C",
"S$	c #484B4B",
"T$	c #393F3E",
"U$	c #656B6B",
"V$	c #6B706F",
"W$	c #575959",
"X$	c #383E3E",
"Y$	c #525454",
"Z$	c #3E4040",
"`$	c #1E2221",
" %	c #383B3A",
".%	c #404141",
"+%	c #303433",
"@%	c #171818",
"#%	c #444545",
"$%	c #2F3433",
"%%	c #343736",
"&%	c #585A5A",
"*%	c #181C1B",
"=%	c #323635",
"-%	c #1E2120",
";%	c #141818",
">%	c #515353",
",%	c #596262",
"'%	c #5F6666",
")%	c #505757",
"!%	c #2A3030",
"~%	c #131313",
"{%	c #262B2A",
"]%	c #3C4140",
"^%	c #3D3E3E",
"/%	c #303131",
"(%	c #121212",
"_%	c #363737",
":%	c #1E2323",
"<%	c #373D3C",
"[%	c #222726",
"}%	c #181919",
"|%	c #2B2B2B",
"1%	c #242A29",
"2%	c #191919",
"3%	c #2C2C2C",
"4%	c #292B2A",
"5%	c #313737",
"6%	c #373D3D",
"7%	c #1C1F1F",
"8%	c #191C1B",
"9%	c #191D1C",
"0%	c #3D4343",
"a%	c #4C4D4D",
"b%	c #535555",
"c%	c #4A4C4C",
"d%	c #181818",
"e%	c #434847",
"f%	c #3F4241",
"g%	c #303534",
"h%	c #575F5F",
"i%	c #656969",
"j%	c #6E7574",
"k%	c #6A6F6F",
"l%	c #4C5454",
"m%	c #5D6463",
"n%	c #545857",
"o%	c #363636",
"p%	c #373838",
"q%	c #575A59",
"r%	c #505B5A",
"s%	c #4F5656",
"t%	c #686E6E",
"u%	c #707575",
"v%	c #686D6D",
"w%	c #5A5C5C",
"x%	c #595F60",
"y%	c #626969",
"z%	c #686F6E",
"A%	c #68706F",
"B%	c #616A6A",
"C%	c #464D4D",
"D%	c #5B5D5D",
"E%	c #464D4C",
"F%	c #4D5555",
"G%	c #585F5E",
"H%	c #696E6E",
"I%	c #6D7372",
"J%	c #4F5858",
"K%	c #656D6C",
"L%	c #5C6464",
"M%	c #5B6363",
"N%	c #474E4E",
"O%	c #414847",
"P%	c #383F3E",
"Q%	c #39403F",
"R%	c #262626",
"S%	c #525A59",
"T%	c #5D6666",
"U%	c #545D5D",
"V%	c #252A2A",
"W%	c #525959",
"X%	c #545C5B",
"Y%	c #535B5A",
"Z%	c #444646",
"`%	c #464A49",
" &	c #3A3D3C",
".&	c #515959",
"+&	c #353C3C",
"@&	c #2B2D2C",
"#&	c #2C3232",
"$&	c #313736",
"%&	c #363C3C",
"&&	c #373E3D",
"*&	c #404242",
"=&	c #252A29",
"  . + . @ # # $ % & * % % = - ; > , $ ' > * ) ; ; ! @ ~ { ] * ^ / % ( _ : : < - [ } | 1   2 3 ^ 4 ] 5 & ) < # # > ] # * 6 7 8 9 ",
"{ 0 a b / 0 c d e f g h i j k l m n o p q r 4 = s t u r d v w x y z A B 0 C 7 D * ^ E F b G H x I J K > . ) + L M N ^ 3 O C b P ",
"* Q R E S T U V W X Y Z ` Y  ...+.X @.#.$.x %.&.*.3 =.g -.;.>...V ,.-.'.).'.!.~.{.].^./.g (._.:.d <.[.> }.|.1.2.3.U p 4.5.H G 1 ",
"7 Q %.6.7.8.9.0.a.b.c.b.d.e.f.g.h.i.j.k.l.6.Q m.) n.o.p.q.0.r.s.t.u.q.v.w.x.y.u.z.A.B.z.C.D.E.F.x G.1 H.&.I.J.V z.K.L.M.X N.4.O.",
"* G P.:.9.Q.Q.f.z.t.R.S.T.R.f.B.U.U.V.8.>.5.0 u ) 0 d W.X.@.Y.Z.k.k.0.B.8.`. +h.9.g.e.R.L..+++q.@+. #+$+%+&+f.*+8.=+U.Z -+;+a >+",
") ,+(.'+b.)+!+u.u.~+{+l.x.]+e.U.B.^+/+e.>.!.0 (+. m._+:+<+:+[+}+|+++8.T.k.1+ +9.2+j.S.u.3+k.4+J.S &.5+Q 6+7+g.L.8+s.9+h.f.<+I >+",
"' G 5.J.0+ + +7.a+x.{+x.@.u.`.z.b+z.B.R.[+p c+7 = R 6.7.u.d+E.e+f+t. +k.g+d+h+&+k.7.{+i+j+'+k+n P.r ] l+m+n+-+u.o+p+9.9.T.W.0 6 ",
") I 5.q+y.r+9.s+A.d+y.0+W '+u.3+'+t+`.u+v+%.3 t *.E d J.e+8.w+x+s+t.`.y+y+h+z+~+A+B+C+W e+#.D+4 a E+*._+E.*+Y j+w.F+s.G+H+I+c+> ",
"J+v 5.K+R.9+L+M+N+x+O+0+j+P+&+y.X.[+Q+R+y N % S+T++ + I '.Q+,.@.F+U+0+y.A.V+k.O+W+X+}+Y t+Y+Q & 3 # *.Z+J.`+t+}+u+b+t.g. @.@b { ",
"~ G e -.C.7.k.+@s+s+A+@@;+#@$@Q+@@:+[+p 0 3   %@} { &@. + q w f W.m+*@Q+=@=@+.-@;@h N.-.x l &@0 & s >@I ,@k.0+J.V '@U+)@e.!@c+@ ",
"% N d j :+l.~@,.{@]@^@!./@I e o.{.(@_@E :@:@  <@[@  ) 7 / &.d 2.w %.n.q }@m.a |@I 1@}@m.4 B 2@L < 3@9 G @@`.W+4@<+ .x.e.`.$.5@6@",
"= 7@=.a o.8@o.m o.'.5.m 9@q l H P.Z+c+~ . 9 0@a@b@s T+*.:@c@3 n.C ~ d@~ ~ * ! e@#+f@e@% ) & 8 g@1 h@#+i@j@0+l.4@k@p.a+&+p+R+l@m@",
"*.b n@m.Q n@I B N m.Q Q N 0 3 o@N l+D $ m@; 5 <@<@s ; ) . J+E+q 0 p@B & :@: s q@r@q@[@[@  5++ . ] s@; a p.L.a+^@;+[+J.F+y.f 5@*.",
"9 } ; : ] ) L b C & C B * : 8 :@c@t@>+c@& % 5 } 3@#+) E E+&.u@^.W.i h 2.E C - v@w@t t ' ^ x@y@x@4 z@9 H $.`.A@;+B@;+C@W '+g 4 ; ",
"] *.$ >+:@$ $ % J+; ] { @ # & &.+ ~ 7 3 ^ D D@8 ; ; % 0 E@F@_.G@;.:+H@w G 4 I@J@% B <.C a H@m+H@e + } 2.K@t.>.L@M@;+l.x.N@w 4 - ",
"O@P@v l p@Q@R@m.N 3 & { * N Q ^ S@u E G P.H x G t@; $ /@T@U@T.V.t.F+>.!@q D@c@z@C 7 l+q y V@g+@@I+Q ; K@K@z.:.;+;+/.X.a+^.3 :@*.",
"G y d m r 2@I G E W@I 4 { B C 0 x X@:+M.Y@V @@n@Z@*.`@m l. #.#+#@###z.u.1.}.$#@ c+& q .@<+%#K.'+A@m.> P.&#4+w.,@,@;+3+V W.+ *#I@",
"y !.=#]@[+-#;#>#,#i@Q E ' &@'#)#W !#]+e.~#{#]#>#}.< F _+^#/#k.7+z.t. +Y 6+&.% = 2 3 6+0+w.(#_#'@$.m.] 4 S T '+:#x.A@0+<#i n.& - ",
"o.J.e+x+x.l.L.a+6.[#Q c+:@3 n j+Z.!+`+A.j.}#b+'.c+*#q (.R.s+t.O+^#Y p+j+N.%.+ ] / c+A@9.|#1#2#3#f 4#*.& g 5#u.3#X J.0+^#i z 3 $ ",
"D+X b.9.j.f.6#` w.i l+7#& v H@8#W 8.9#j+U+0#a#h c+% 1@[+Q.b#Z.F+X u.p+W Y+4.I m@J I j@c#i.d#x+l.q * ; L H e#f#g#D.K+h#V $.e q > ",
"u@@.0.i.h.U.9.0#9+t+d ^ O@x@D+J.s+i.i#Z.j#k#l#)#:@m#n#o#h.9+N+p#R.q#-+N@r#s#y :@& =.o+.+}#h.0+4@4.~ z@t#%.6+&#-.:.m+5#u#h P._+] ",
"6.v#g+8.k.h.}#w#i.j#x#7@^ a o.8+y###z#s+f+i#/#q+:@A#Q W.s+h.Q.0.N+2+7.B#H@m C#. D#y ]+c#E#e.X./.H 2 = F#3 0 o@l N.!@.@h y q 0 > ",
"G#H#I#!+d+V.N+t.t.a#^.J#4 H g 7.i.k#U.N+k.K#k#L.L#*.m.m+!+8.z#8.8.b.j+6#u#J#R 2 M#@+{#N#r+z.X./.e 4 ~ m@: G l 4 D 2@m.c+b 0 O#L ",
"a P#w+g+3#r.N+s.j.'@4@Z+& q -.t.N# +p+t+s+_#a.x.I = G q+j.Q#R#h.X t.U+j...S#T#& t#U#V#z#W#O+V <+n R 4 L *.: I &@X#n.C / / *.m@7 ",
"y 4@t+w+j#A.^+p#h.'@Y+l+:@q h#i#Y#'+0+7.r.Z#Z.f c+* I m+e.L+`#r+C.Y t+j.u. $y 2 :@>#`.B.z.3+#.4@g R 2@N &@9 5+: = O # + & z@.$m@",
"l <++$&+F+t+z.b+`+@$i l # r w.Z#}#X.:+@.p+s.u.2.+ :@2.A@f.2+Z#U.'+4+j+U.R.8@H 4 #$$$Q+u.0+l.-.K+%$x N I m.0@) &$+ n#m.*$I+q C & ",
"C o {+y.7.F+z.F+7+'@=$a ' x@N@U.j.-$-.x.d+d+W+y L ) o.;$`.>$w#T..@/.K+A.O+o#r ,$c@N.x.#.J.'$<+>.)$6.l E c+T+3 !$w ~$W.i+l.q l &.",
"0 a /.x.4+7.`.h+d+d+{$P.$ =.;.g+]$h#k@a+N+s+^$x . O#G#;+g+`.k.@./$e I+3+J.I+0 t@& o#;$K+=$k@N.>.J.5#J#E m@5 0 N y T A@5#($2@E :@",
"^ N 8@A@H#4+p+P++@R.:+D 7 G Y+t._$j+*@C@ +x+{+e d@: o ]@:$L.T.'+)#n -.L.i v+D@@ &.w ,.A@*@o#k@4@J.D.x <$5 1 7 H D+V R.N@L@H B < ",
"0 n.2.W.W+x.h+g+y#y._.H.b q [+[$}$w#7.|$7.+$@@y / ; v .@F+1$A.Y.-.2$J.4@.@6+}.. C 0 ~.X.*@6+k@N.4@3$G &.4$- '#5$6$-+s.b+i m m.: ",
"Q n.&#W.a+W+h+7$2#^$Y+/ 2 u x 3+I#!+y.@.l.h#!.l / m@l+8$y.b+T.1$F+F.9$0$.@6+/ ~ l 2@0$L.J.8@o D+6.p 2 2.a$* 5.C.*+b$}#e.L@_+l z@",
"m.M#e @@l.l.y.##c$W D+J+{ B 0 6+I+3+b+W+o+d$<.% & :@d v+7.e$O+3#u.7.X -.6.!$8 ) N H H@f$M./.e R m.C t#J#g$G !@k+6#h$[$e.C@F@4.g$",
"E + a T A@($j+N+ +j#/.. < &@+ :@I 2.5.H@_+L i$: * t#g Y+j$6#w..@B@l.>..@1.|@] $#C 3 _+8$f v+T#&#7@C 0 c+t n@Y+K+B.k$N#T.l$(.%.m#",
"m.& n.!.L@($d+h.++@@S % g$> i$= @ ~ :@# #+T+9 m$, m@x@ $R++.a+X@3$!@(.d v d@z@] n.4 & &.b 4 C / C 0 / z@] n$R+#.F+Q#=+ +x.W._+- ",
"e D % v [+W+u.L.:.-.y # ; ; o$s@T+} <@T+s 5 s 5+J+z@= N m.I 2@c+&.E 1.d 2 : 9 { >+0 n#& 2 ) 2 3 C 7 ; 9 :@8$o#q.'+)@2+`+N@<+K@p$",
"N.w 7 c+)#4+:#q$N@m+N z@s - z@T+r$s [@3@S+[@[ z@*.9 } 0@z@1 #+I@] # + + m@5 } s$9 s } s@q@[.[@[ 5 5 5 s #+x i U+w+c#Q.t$F+$.E@u$",
"0$6.c+t#d N.i+W X.%.}.v$3@w$O c+a e x$[#Z+l _+w P.H y$G L `@b o@0 0 ) ; 1 a@*.D@~ = J+: T+1 #+*.= # m@P v$5@Y+@.T.z$9.-+W 6.<$>+",
"r p r <.0 5.;+A$y N >@[@  ] / d 4@@.L.b+-+B$<#/+d.Y C.i p e y e m a n.= T+C$w f A L#D$E$4 + b m.R l N : q@. w [+t.z$U.1$@.>.w ^ ",
"/ e F$E l o.m G$E L } 1 = * Q 2.N@0+0+7.h+b+S.b.2+H$=+Q#h.f.X V W.(.d , J@I$<+J$K$L$n$y@&#H I m _+d c+& M$@ P.N@t.z$]+..m+h g G ",
"0@+ I c+d@G.*.0@>@z@0@8 $ p$N$5.>.;.0+w+1$h+!+O$P$Q$R$9.G+U.U+'+4@6+H 7 b@O@;@H 8$;+S$[+W.-@_.<+T$>#l + *.2@P.'+I#X B$p.v+p o.4.",
"z@5 #+#+#+] > *.0@@ 8 # . = w m+7.F+d+8.8.N+U$_$V$_$Q#V#)+W$E.<#^.6.e D *.4#I 8$!@-.D.N@7.1$7+h+!@<+X$5@C$A Z+:.0.'+f$L@f i F@G ",
"s *.c@) ~ I y G N B ) } ] m@I l.e.R.y.h+R.t+_#B.h.f.w+7.]+^.-.'+#.6.d I C$3 A ($q$J.K+V '+k.N#Z#j+^@e#Z+' r v+Y$`+:.0$*@Y+5#Z$q ",
"`${ . ~ . W@p U# %2@& s@s@*.Q@5#w+R.X.W+A@l.7.7.7.U+X w.;.a+a+7.V .@I l T+7 m ~+y.a+>.V '+b+j.}#b+K+S &.J@2@/$l$O+M.h k@q+.%h +%",
"$ ~ (+c+G X.l#8.@.q C 4$@%#+^ 0$y.0+l.<+k@A@U+U.)+N+T.e.h.u.7.t+D.6.m.%.[.= i 8.k.N@..C.y.U+A.8.1$:+D$<$o$&.y@A@w..@y@!@C.#%_+$%",
"~ C c+%%Z$<#&%*+7+A$7@* [@*.S@.@W 4+h#;+u#V 7.A.t.F+1$U.b.U.&+U+D.!.$%c+o$*.p w+t.:.V N@0+j+1$`+7+4+1@N *%E v+m+w.D+I+-.y.y E N ",
"S@=%6+<+0$^#8.T.b+N._+&.*.-%c+5._.x.a+B@g#{$&+`.h#=#;+,.j#w+e$!+:.8@m.% s@  F@u.j.'+>.A@E.7.h+t+u.H#y w ;%4 !@0$e$g#0$q+>%m.2@n#",
"C N x $.h#,%'%g++.k+R c+>@} O G H@>.#.U u#($j+x.l.U w.u.7+T.f.h#l.H@o@^ s ] d _.F+V V z.R.H#)%<+5.l+d !%~%2 %%K@v+$.Y+i 3 {%A o@",
"E q f Y+W 7$r+]#X.-$C#C 8 [@= N m I+>.@@]%($L.a#X ^#u.@.V S$_.$.T 5.Q v 9 # o@v+#.T 6+)#,.v+^%%.3 /%R@9 (%q@>+Q _%d x q N a 2@2 ",
"2@e N.-.t+i.z.C+K+^.o 0 > o$- 0 4.H w S 8$:+x.w.^#B$T W.<+g H l w 2.E ^ : >+O _+S$f 4 E 7@^ >+C C c+t@[@8 :%T+t $%'#y <%L$d %.$ ",
"R ]%-.H#T.N#U+p.u#k@o.c+[%}%[@O@v _%d N <$l R d 2.&#N E +%l m.q l+E ^ , *.) 8 ~ ~ |%) < < ; - 8 , 5 q@a@2 C$5+; ] O 6@1%) &@: { ",
"r y$:+]+]+K#0+)#*$L@)#y o@5 2%h@J+E m.G E 0 0 &@2 J+J+L ^ 4 G ^ 3%$ A##+T+5 : :@  5+5 *%<@} ; 0@  s 9 4%H 5%w 6%(.e a 9@0 ~ ; >+",
"N %.[+h#@.'@K+D+6+h 6.G &.<.5 [@T+v@3@s@1 3@5 7%1 T+5 } 8%9%#+2%[@q@g$] 1 5   *.T+#+*.> O 3 l d L 2 G x Y+)#6%h v+W.W.)#q 4 @ 5 ",
"n.a k+6$:+^.0$0%K@'.f#!$&.:@1 ; < = 6 4%/ O 7 ^ 0 ~ @ L 3 2 b D 5@Z+v <$; 9 *.  > < c+o@l+T@S 0$x#)#@+S a%b+w.g#Y$b%8.c%L$>+2 d%",
"R D+b+0.X.4+8+e%(.H@l.D+4 *.o$; ) l+H F@S v+f f% $A m.g%n@d d q 0 ^ 0 b n.8 *.: : 2@%.y@Y+0%N@c#T.!+h%b%U.i%j%k$_$R$k%Y 0$0 { *%",
"4 x U+ +C@@.l%;+D+~.B@f#l ( o$; ~ _@U 0+U.a.m%V+R.N@4+V@n%:+!@K@2.d Q 7 / H n.< `@o%p%0$H@7+X q%r%j+X s%w#t%u%v%R$)+Q.w%+.0 &@8%",
"+ Z+:.0.:...i 5.m o :+-@I % [@) m )%Z. .y.s+g+x%d+a.2#y%z%A%B%2#w+C%8@4#M  $v m$K@|.I+!@7.}#k#D%0.0.`+ +N+N+0#q.}#K.T.g#C.x * 5 ",
"~ 2@f 4+|$L@o K@e e C%X.%.D@#+/ 8@j+^@E%F%G%i#w#s.N+##e$N#H%I%t%k#i#W+a E@K@& # v C L@#.t.k#8.j.k.2#U.z$]+J%X.p+b+U.7+K+5#@+) b@",
". &.x C@i+@@v+Y+6+o#Q+,.d 3 ; ^ 5.B@l.C@A@;$|$s+ +P+O+x+##`#Y#R#K%-+Z$2.,+Q 8 & &.d [+X.A.s.N+##L%M%V+|$i+y.i+u.q%u.q.#.<+>#D C$",
". + R N%H#W.'$O%P%Q%.@N.G b R%(+m )#T j+S%W+C@j.3+G#o#8@@@U.T%U%!+w#@.*@l c+V%n.a H@*@'+0+t+W%1+P+X%P+p+U+j+u.]+>.q+S$5#;+1@A ) ",
"= C _+h#d+Q+/.-#!$p ,.~$G + z@}._+6.8@ .W%X.x.H#l.-._.D...w.0+s%!#Y%+.Z+a 4 {%m.y H#4@A@#.7.H#7.0+h+s.9.1$w.D.Z%_@P.r#:+H@w w 2 ",
"*.~ (.L.`.3+4@~.v+I+X.!@Z+D@; c+a K@y !.'.6+1.o#{+m+T -@T q+`%g  &m &.0 Q }.. $+=%q+.&]+H#u.h+t+y.7.7.w.k+:+Y+T$+&T$5#-.a D$q *.",
"' + &.Z$X.4+,.o#5.o.n H m.J = & @&N G 2@Q #&r Z+%.D$D$(.p @+g 6+8$a 7 t#* &@&@N o@d 6%!@.%k@u+<+W.[+!@f h f _@P.a I 6+4.0 M#3 5 ",
"8 &.Z+r $&%&1.v &@3 &.Q n.~ / I >+:@6@) % 3 2@q $+N C E+E+N a v 0 :@8 @ ' / % M#c+m.w N && $x e _+H D+y@*&R 1@,+/ :@E & :@; 5 1 ",
"7%' &@3 ^ b &@7 d@~ 2 }.d@# & b : 9 5 z@5+@ 2 E c+}.{ 8 > $ >+}./ 6@@ >+* d@I@2 >+* & n#D C D * < $ c@>+D D &.+ J+=&@ ] ) #+3@=&"};
