/* XPM */
static char * n_letter_xpm[] = {
"64 64 101 2",
"  	c #FFFFFF",
". 	c #FEFEFE",
"+ 	c #FDFDFD",
"@ 	c #FBFBFB",
"# 	c #B2B2B2",
"$ 	c #AAAAAA",
"% 	c #ACACAC",
"& 	c #F4F4F4",
"* 	c #BDBDBD",
"= 	c #D2D2D2",
"- 	c #4B4B4B",
"; 	c #000000",
"> 	c #ABABAB",
", 	c #757575",
"' 	c #FCFCFC",
") 	c #1E1E1E",
"! 	c #E5E5E5",
"~ 	c #010101",
"{ 	c #7E7E7E",
"] 	c #FAFAFA",
"^ 	c #C8C8C8",
"/ 	c #464646",
"( 	c #F3F3F3",
"_ 	c #9F9F9F",
": 	c #141414",
"< 	c #DADADA",
"[ 	c #707070",
"} 	c #020202",
"| 	c #BCBCBC",
"1 	c #3A3A3A",
"2 	c #ECECEC",
"3 	c #979797",
"4 	c #101010",
"5 	c #CFCFCF",
"6 	c #626262",
"7 	c #F7F7F7",
"8 	c #B3B3B3",
"9 	c #1D1D1D",
"0 	c #E4E4E4",
"a 	c #888888",
"b 	c #585858",
"c 	c #040404",
"d 	c #CBCBCB",
"e 	c #B8B8B8",
"f 	c #5F5F5F",
"g 	c #494949",
"h 	c #C1C1C1",
"i 	c #CECECE",
"j 	c #060606",
"k 	c #939393",
"l 	c #DBDBDB",
"m 	c #EBEBEB",
"n 	c #393939",
"o 	c #C2C2C2",
"p 	c #B4B4B4",
"q 	c #C4C4C4",
"r 	c #6F6F6F",
"s 	c #3F3F3F",
"t 	c #D9D9D9",
"u 	c #161616",
"v 	c #9D9D9D",
"w 	c #9C9C9C",
"x 	c #171717",
"y 	c #D4D4D4",
"z 	c #F2F2F2",
"A 	c #444444",
"B 	c #646464",
"C 	c #F6F6F6",
"D 	c #BBBBBB",
"E 	c #7C7C7C",
"F 	c #3D3D3D",
"G 	c #E6E6E6",
"H 	c #E3E3E3",
"I 	c #898989",
"J 	c #A7A7A7",
"K 	c #070707",
"L 	c #D1D1D1",
"M 	c #5D5D5D",
"N 	c #4F4F4F",
"O 	c #050505",
"P 	c #868686",
"Q 	c #2B2B2B",
"R 	c #424242",
"S 	c #EAEAEA",
"T 	c #383838",
"U 	c #B1B1B1",
"V 	c #F8F8F8",
"W 	c #151515",
"X 	c #909090",
"Y 	c #EEEEEE",
"Z 	c #F9F9F9",
"` 	c #767676",
" .	c #DFDFDF",
"..	c #F0F0F0",
"+.	c #525252",
"@.	c #838383",
"#.	c #2D2D2D",
"$.	c #C0C0C0",
"%.	c #5B5B5B",
"&.	c #EFEFEF",
"*.	c #F5F5F5",
"                                                                                                                                ",
"                                                                                                                                ",
"                                                                                                                                ",
"                                                                                                                                ",
"                    . + .                 . + .                                   . +               . + .                       ",
"                    . @ # $ $ $ $ $ $ $ $ % & .                                   + * $ $ $ $ $ $ $ $ = .                       ",
"                      @ - ; ; ; ; ; ; ; ; ; > +                                     , ; ; ; ; ; ; ; ; >                         ",
"                      ' - ; ; ; ; ; ; ; ; ; ) ! +                                   , ; ; ; ; ; ; ; ; >                         ",
"                      ' - ; ; ; ; ; ; ; ; ; ~ { ]                                   , ; ; ; ; ; ; ; ; >                         ",
"                      ' - ; ; ; ; ; ; ; ; ; ; ~ ^ .                                 , ; ; ; ; ; ; ; ; >                         ",
"                      ' - ; ; ; ; ; ; ; ; ; ; ; / ( .                               , ; ; ; ; ; ; ; ; >                         ",
"                      ' - ; ; ; ; ; ; ; ; ; ; ; ; _ ' .                             , ; ; ; ; ; ; ; ; >                         ",
"                      ' - ; ; ; ; ; ; ; ; ; ; ; ; : < +                             , ; ; ; ; ; ; ; ; >                         ",
"                      ' - ; ; ; ; ; ; ; ; ; ; ; ; ; [ @                             , ; ; ; ; ; ; ; ; >                         ",
"                      ' - ; ; ; ; ; ; ; ; ; ; ; ; ; } | +                           , ; ; ; ; ; ; ; ; >                         ",
"                      ' - ; ; ; ; ; ; ; ; ; ; ; ; ; ~ 1 2                           , ; ; ; ; ; ; ; ; >                         ",
"                      ' - ; ; ; ; ; ; ; ; ; ; ; ; ; ; ; 3 .                         , ; ; ; ; ; ; ; ; >                         ",
"                      ' - ; ; ; ; ; ; ; ; ; ; ; ; ; ; ; 4 5 .                       , ; ; ; ; ; ; ; ; >                         ",
"                      ' - ; ; ; ; ; ; ; ; ; ; ; ; ; ; ; ; 6 7 +                     , ; ; ; ; ; ; ; ; >                         ",
"                      ' - ; ; ; ; ; ; ; ; ; ; ; ; ; ; ; ; ~ 8 +                     , ; ; ; ; ; ; ; ; >                         ",
"                      ' - ; ; ; ; ; ; ; ; ; ; ; ; ; ; ; ; ; 9 0                     , ; ; ; ; ; ; ; ; >                         ",
"                      ' - ; ; ; ; ; ; ; ; ; ; ; ; ; ; ; ; ; ~ a @ .                 , ; ; ; ; ; ; ; ; >                         ",
"                      ' - ; ; ; ; ; ; ; ; b ~ ; ; ; ; ; ; ; ; c d .                 , ; ; ; ; ; ; ; ; >                         ",
"                      ' - ; ; ; ; ; ; ; ; e f ; ; ; ; ; ; ; ; ; g & .               , ; ; ; ; ; ; ; ; >                         ",
"                      ' - ; ; ; ; ; ; ; ; h i j ; ; ; ; ; ; ; ; ; $ +               , ; ; ; ; ; ; ; ; >                         ",
"                      ' - ; ; ; ; ; ; ; ; h ' k ~ ; ; ; ; ; ; ; ; 9 l +             , ; ; ; ; ; ; ; ; >                         ",
"                      ' - ; ; ; ; ; ; ; ; h + m n ; ; ; ; ; ; ; ; ~ , ]             , ; ; ; ; ; ; ; ; >                         ",
"                      ' - ; ; ; ; ; ; ; ; o   + p ; ; ; ; ; ; ; ; ; ~ q             , ; ; ; ; ; ; ; ; >                         ",
"                      ' - ; ; ; ; ; ; ; ; o     ' r ; ; ; ; ; ; ; ; ; s m .         , ; ; ; ; ; ; ; ; >                         ",
"                      ' - ; ; ; ; ; ; ; ; o     . t u ; ; ; ; ; ; ; ; ; v + .       , ; ; ; ; ; ; ; ; >                         ",
"                      ' - ; ; ; ; ; ; ; ; o     . ' w ; ; ; ; ; ; ; ; ; x y +       , ; ; ; ; ; ; ; ; >                         ",
"                      ' - ; ; ; ; ; ; ; ; o         z A ; ; ; ; ; ; ; ; ; B C       , ; ; ; ; ; ; ; ; >                         ",
"                      ' - ; ; ; ; ; ; ; ; o         . h ~ ; ; ; ; ; ; ; ; ~ D +     , ; ; ; ; ; ; ; ; >                         ",
"                      ' - ; ; ; ; ; ; ; ; o           @ E ; ; ; ; ; ; ; ; ~ F G     , ; ; ; ; ; ; ; ; >                         ",
"                      ' - ; ; ; ; ; ; ; ; o           + H 9 ; ; ; ; ; ; ; ; ~ I + . , ; ; ; ; ; ; ; ; >                         ",
"                      ' - ; ; ; ; ; ; ; ; o             . J ; ; ; ; ; ; ; ; ; K L . , ; ; ; ; ; ; ; ; >                         ",
"                      ' - ; ; ; ; ; ; ; ; o             . & M ; ; ; ; ; ; ; ; ; N & , ; ; ; ; ; ; ; ; >                         ",
"                      ' - ; ; ; ; ; ; ; ; o             . + i O ; ; ; ; ; ; ; ; ~ > , ; ; ; ; ; ; ; ; >                         ",
"                      ' - ; ; ; ; ; ; ; ; o                 ] P ; ; ; ; ; ; ; ; ; Q R ; ; ; ; ; ; ; ; >                         ",
"                      ' - ; ; ; ; ; ; ; ; o                   S T ; ; ; ; ; ; ; ; ; ; ; ; ; ; ; ; ; ; >                         ",
"                      ' - ; ; ; ; ; ; ; ; o                   . U ~ ; ; ; ; ; ; ; ; ; ; ; ; ; ; ; ; ; >                         ",
"                      ' - ; ; ; ; ; ; ; ; o                   . V B ; ; ; ; ; ; ; ; ; ; ; ; ; ; ; ; ; >                         ",
"                      ' - ; ; ; ; ; ; ; ; o                       t W ; ; ; ; ; ; ; ; ; ; ; ; ; ; ; ; >                         ",
"                      ' - ; ; ; ; ; ; ; ; o                       @ X ~ ; ; ; ; ; ; ; ; ; ; ; ; ; ; ; >                         ",
"                      ' - ; ; ; ; ; ; ; ; o                       + Y F ; ; ; ; ; ; ; ; ; ; ; ; ; ; ; >                         ",
"                      ' - ; ; ; ; ; ; ; ; o                         + h } ; ; ; ; ; ; ; ; ; ; ; ; ; ; >                         ",
"                      ' - ; ; ; ; ; ; ; ; o                           Z ` ; ; ; ; ; ; ; ; ; ; ; ; ; ; >                         ",
"                      ' - ; ; ; ; ; ; ; ; o                           .  .W ; ; ; ; ; ; ; ; ; ; ; ; ; >                         ",
"                      ' - ; ; ; ; ; ; ; ; o                           . ' J ~ ; ; ; ; ; ; ; ; ; ; ; ; >                         ",
"                      ' - ; ; ; ; ; ; ; ; o                               ..+.; ; ; ; ; ; ; ; ; ; ; ; >                         ",
"                      ' - ; ; ; ; ; ; ; ; o                               ' d ; ; ; ; ; ; ; ; ; ; ; ; >                         ",
"                      ' - ; ; ; ; ; ; ; ; o                               . @ @.; ; ; ; ; ; ; ; ; ; ; >                         ",
"                      ' - ; ; ; ; ; ; ; ; o                                 . H #.; ; ; ; ; ; ; ; ; ; >                         ",
"                      @ - ; ; ; ; ; ; ; ; o                                   . U ; ; ; ; ; ; ; ; ; ; >                         ",
"                    . ] g ; ; ; ; ; ; ; ; $.                                  . C %.; ; ; ; ; ; ; ; ; $ .                       ",
"                    . ' ................&.7                                     + C &.................*..                       ",
"                                                                                                                                ",
"                                                                                                                                ",
"                                                                                                                                ",
"                                                                                                                                ",
"                                                                                                                                ",
"                                                                                                                                ",
"                                                                                                                                ",
"                                                                                                                                "};
