/* XPM */
static char * nnn_letter_xpm[] = {
"64 64 697 2",
"  	c #242A29",
". 	c #202323",
"+ 	c #1E2222",
"@ 	c #222626",
"# 	c #191B1B",
"$ 	c #212525",
"% 	c #1C2120",
"& 	c #262A2A",
"* 	c #292C2C",
"= 	c #2E3232",
"- 	c #292E2E",
"; 	c #2D2F2F",
"> 	c #2A2E2E",
", 	c #252A2A",
"' 	c #333535",
") 	c #2B2E2E",
"! 	c #2A2D2C",
"~ 	c #303333",
"{ 	c #2F3232",
"] 	c #333737",
"^ 	c #3B3E3E",
"/ 	c #353939",
"( 	c #2D3131",
"_ 	c #2C3131",
": 	c #313333",
"< 	c #363A3A",
"[ 	c #393D3D",
"} 	c #333636",
"| 	c #2E3131",
"1 	c #2A2D2D",
"2 	c #272B2B",
"3 	c #262B2A",
"4 	c #2C3030",
"5 	c #292D2D",
"6 	c #272A2A",
"7 	c #292C2B",
"8 	c #262928",
"9 	c #222525",
"0 	c #212323",
"a 	c #202424",
"b 	c #1F2323",
"c 	c #232626",
"d 	c #242828",
"e 	c #242727",
"f 	c #232727",
"g 	c #1E2120",
"h 	c #1C2020",
"i 	c #212424",
"j 	c #1D2121",
"k 	c #181B1B",
"l 	c #1E2323",
"m 	c #202525",
"n 	c #2D3030",
"o 	c #303434",
"p 	c #2F3434",
"q 	c #323636",
"r 	c #2F3333",
"s 	c #262828",
"t 	c #363939",
"u 	c #393D3C",
"v 	c #484E4D",
"w 	c #545858",
"x 	c #464A4A",
"y 	c #515555",
"z 	c #565B5A",
"A 	c #5F6161",
"B 	c #616464",
"C 	c #5D6161",
"D 	c #646969",
"E 	c #5D5F5F",
"F 	c #555959",
"G 	c #5F6262",
"H 	c #5C6060",
"I 	c #5A5F5F",
"J 	c #5A5E5E",
"K 	c #5D6060",
"L 	c #585C5C",
"M 	c #454A4A",
"N 	c #3D4141",
"O 	c #252727",
"P 	c #313636",
"Q 	c #2B3030",
"R 	c #3B403F",
"S 	c #3A3F3E",
"T 	c #373C3C",
"U 	c #2D3232",
"V 	c #2C2F2F",
"W 	c #282D2C",
"X 	c #1F2121",
"Y 	c #191C1C",
"Z 	c #1F2222",
"` 	c #242626",
" .	c #3C4040",
"..	c #474C4B",
"+.	c #4B4E4E",
"@.	c #4D5050",
"#.	c #4E5353",
"$.	c #545958",
"%.	c #4A4F4F",
"&.	c #3A3E3E",
"*.	c #202222",
"=.	c #2B2F2F",
"-.	c #3D4040",
";.	c #474C4C",
">.	c #626565",
",.	c #6A6E6E",
"'.	c #767878",
").	c #6A6E6D",
"!.	c #636767",
"~.	c #686F6E",
"{.	c #646868",
"].	c #707575",
"^.	c #6E7373",
"/.	c #626767",
"(.	c #595E5E",
"_.	c #545A59",
":.	c #535757",
"<.	c #525555",
"[.	c #454949",
"}.	c #323737",
"|.	c #404545",
"1.	c #5C6161",
"2.	c #5E6363",
"3.	c #4C5151",
"4.	c #404444",
"5.	c #3F4343",
"6.	c #3E4141",
"7.	c #414545",
"8.	c #424646",
"9.	c #434847",
"0.	c #454A49",
"a.	c #444949",
"b.	c #484D4C",
"c.	c #484C4C",
"d.	c #404544",
"e.	c #3C4141",
"f.	c #414544",
"g.	c #414444",
"h.	c #595D5D",
"i.	c #555A59",
"j.	c #5B5F5F",
"k.	c #545959",
"l.	c #4D5352",
"m.	c #3B4040",
"n.	c #282C2C",
"o.	c #4D5454",
"p.	c #5A6060",
"q.	c #686C6C",
"r.	c #666B6B",
"s.	c #6D7272",
"t.	c #5F6363",
"u.	c #676C6B",
"v.	c #676C6C",
"w.	c #5B5E5E",
"x.	c #5C5F5F",
"y.	c #595C5C",
"z.	c #4F5555",
"A.	c #4B4F4F",
"B.	c #494C4C",
"C.	c #484C4B",
"D.	c #4A4C4C",
"E.	c #3D4342",
"F.	c #3F4242",
"G.	c #333838",
"H.	c #252827",
"I.	c #212423",
"J.	c #3B3F3E",
"K.	c #434747",
"L.	c #565A5A",
"M.	c #5E6262",
"N.	c #535857",
"O.	c #4C4F4F",
"P.	c #4D5151",
"Q.	c #525757",
"R.	c #5E6161",
"S.	c #606363",
"T.	c #626666",
"U.	c #575C5C",
"V.	c #5F6565",
"W.	c #606464",
"X.	c #525656",
"Y.	c #474D4C",
"Z.	c #515454",
"`.	c #515757",
" +	c #3F4444",
".+	c #242525",
"++	c #414443",
"@+	c #686E6E",
"#+	c #5D6464",
"$+	c #6A6F6F",
"%+	c #6A6F6E",
"&+	c #656969",
"*+	c #575B5A",
"=+	c #535858",
"-+	c #464C4B",
";+	c #474B4B",
">+	c #4A4E4E",
",+	c #4C5050",
"'+	c #4E5252",
")+	c #525756",
"!+	c #464B4A",
"~+	c #454B4A",
"{+	c #414747",
"]+	c #444848",
"^+	c #313535",
"/+	c #323535",
"(+	c #383C3C",
"_+	c #515656",
":+	c #555B5A",
"<+	c #616565",
"[+	c #585B5B",
"}+	c #434848",
"|+	c #595B5B",
"1+	c #5F6261",
"2+	c #282A2A",
"3+	c #515353",
"4+	c #6F7272",
"5+	c #575B5B",
"6+	c #4F5453",
"7+	c #464B4B",
"8+	c #505555",
"9+	c #424747",
"0+	c #414646",
"a+	c #3A3D3D",
"b+	c #4F5353",
"c+	c #565B5B",
"d+	c #606262",
"e+	c #535656",
"f+	c #505655",
"g+	c #4B5050",
"h+	c #292B2B",
"i+	c #252626",
"j+	c #3E4241",
"k+	c #636868",
"l+	c #4C5252",
"m+	c #4F5252",
"n+	c #4A4D4D",
"o+	c #484B4B",
"p+	c #464949",
"q+	c #424746",
"r+	c #585D5D",
"s+	c #494B4B",
"t+	c #484A4A",
"u+	c #4D5252",
"v+	c #494D4D",
"w+	c #4E5151",
"x+	c #5A5D5D",
"y+	c #3B3F3F",
"z+	c #272A29",
"A+	c #565959",
"B+	c #505353",
"C+	c #4F5454",
"D+	c #2A2F2F",
"E+	c #3E4242",
"F+	c #5F6362",
"G+	c #3F4545",
"H+	c #373B3B",
"I+	c #282B2A",
"J+	c #2F3332",
"K+	c #252929",
"L+	c #484D4D",
"M+	c #3A3E3D",
"N+	c #2E3333",
"O+	c #686D6C",
"P+	c #3C3F3F",
"Q+	c #323736",
"R+	c #3D4242",
"S+	c #2D3333",
"T+	c #1A1D1D",
"U+	c #191C1B",
"V+	c #282B2B",
"W+	c #494E4E",
"X+	c #353838",
"Y+	c #2E3030",
"Z+	c #515655",
"`+	c #454848",
" @	c #363B3B",
".@	c #404646",
"+@	c #383D3D",
"@@	c #373D3D",
"#@	c #303535",
"$@	c #262929",
"%@	c #161919",
"&@	c #252828",
"*@	c #575C5B",
"=@	c #424848",
"-@	c #3D4343",
";@	c #444847",
">@	c #434948",
",@	c #303232",
"'@	c #333939",
")@	c #313434",
"!@	c #1E2020",
"~@	c #151616",
"{@	c #161616",
"]@	c #666A6A",
"^@	c #535555",
"/@	c #343838",
"(@	c #343737",
"_@	c #3C4242",
":@	c #252B2A",
"<@	c #1D1F1F",
"[@	c #4A5050",
"}@	c #272C2B",
"|@	c #242827",
"1@	c #232A29",
"2@	c #2A2C2C",
"3@	c #232424",
"4@	c #222424",
"5@	c #1B1E1E",
"6@	c #171B1A",
"7@	c #121515",
"8@	c #131717",
"9@	c #393E3D",
"0@	c #444948",
"a@	c #292E2D",
"b@	c #242929",
"c@	c #2F3131",
"d@	c #272B2A",
"e@	c #343A3A",
"f@	c #232525",
"g@	c #1B1D1D",
"h@	c #1D2020",
"i@	c #1A1E1E",
"j@	c #1C2121",
"k@	c #222727",
"l@	c #191919",
"m@	c #161818",
"n@	c #171A19",
"o@	c #161716",
"p@	c #131515",
"q@	c #101111",
"r@	c #181B1A",
"s@	c #1C1E1E",
"t@	c #3E4444",
"u@	c #282D2D",
"v@	c #242928",
"w@	c #202121",
"x@	c #1E2121",
"y@	c #1C1F1F",
"z@	c #0F1313",
"A@	c #0F1212",
"B@	c #141616",
"C@	c #171717",
"D@	c #181A1A",
"E@	c #121615",
"F@	c #111414",
"G@	c #101313",
"H@	c #0D0F0E",
"I@	c #0E0F0F",
"J@	c #0C0F0F",
"K@	c #0E1212",
"L@	c #111212",
"M@	c #141817",
"N@	c #1A1D1C",
"O@	c #1B1F1E",
"P@	c #1E2221",
"Q@	c #232827",
"R@	c #2B2D2D",
"S@	c #202423",
"T@	c #171818",
"U@	c #151817",
"V@	c #1F2322",
"W@	c #212626",
"X@	c #2E3231",
"Y@	c #1C201F",
"Z@	c #3A3F3F",
"`@	c #404343",
" #	c #383B3A",
".#	c #373A3A",
"+#	c #303433",
"@#	c #4A4F4E",
"##	c #4C5150",
"$#	c #656868",
"%#	c #646767",
"&#	c #5B5F5E",
"*#	c #6C7170",
"=#	c #707474",
"-#	c #737777",
";#	c #696E6E",
">#	c #646666",
",#	c #383B3B",
"'#	c #4B504F",
")#	c #595E5D",
"!#	c #5B6060",
"~#	c #636565",
"{#	c #676B6A",
"]#	c #6B6F6F",
"^#	c #737878",
"/#	c #767A7A",
"(#	c #777B7B",
"_#	c #737676",
":#	c #727676",
"<#	c #636666",
"[#	c #707574",
"}#	c #6C706F",
"|#	c #707272",
"1#	c #727373",
"2#	c #6E7171",
"3#	c #696E6D",
"4#	c #5F6464",
"5#	c #545857",
"6#	c #252928",
"7#	c #4B5150",
"8#	c #757878",
"9#	c #737575",
"0#	c #717474",
"a#	c #727474",
"b#	c #6B6F6E",
"c#	c #636464",
"d#	c #696F6E",
"e#	c #676B6B",
"f#	c #676969",
"g#	c #656A6A",
"h#	c #383A3A",
"i#	c #707373",
"j#	c #575A5A",
"k#	c #585D5C",
"l#	c #727575",
"m#	c #6D7070",
"n#	c #585B5A",
"o#	c #565A59",
"p#	c #232828",
"q#	c #3D4241",
"r#	c #555958",
"s#	c #505252",
"t#	c #444747",
"u#	c #444A4A",
"v#	c #6C7070",
"w#	c #5C605F",
"x#	c #595F5F",
"y#	c #393C3C",
"z#	c #434746",
"A#	c #343939",
"B#	c #505454",
"C#	c #666969",
"D#	c #525454",
"E#	c #474A4A",
"F#	c #3D3F3F",
"G#	c #353B3A",
"H#	c #212727",
"I#	c #1C1D1D",
"J#	c #626464",
"K#	c #5C5E5E",
"L#	c #242728",
"M#	c #1B201F",
"N#	c #1A1E1D",
"O#	c #262B2B",
"P#	c #292D2C",
"Q#	c #434646",
"R#	c #404242",
"S#	c #222828",
"T#	c #252A29",
"U#	c #272929",
"V#	c #2C2E2E",
"W#	c #2A2E2D",
"X#	c #353A3A",
"Y#	c #303332",
"Z#	c #1F2020",
"`#	c #222524",
" $	c #191D1C",
".$	c #2D3231",
"+$	c #252726",
"@$	c #353B3B",
"#$	c #2E3130",
"$$	c #3A3C3C",
"%$	c #3A3D3C",
"&$	c #363838",
"*$	c #3F4342",
"=$	c #373939",
"-$	c #393B3B",
";$	c #3E4343",
">$	c #282C2B",
",$	c #151818",
"'$	c #141717",
")$	c #151918",
"!$	c #202322",
"~$	c #1C1F1E",
"{$	c #5C6160",
"]$	c #676A6A",
"^$	c #505554",
"/$	c #3F4141",
"($	c #404443",
"_$	c #494E4D",
":$	c #3A4040",
"<$	c #565C5B",
"[$	c #6C6E6E",
"}$	c #2E2F2F",
"|$	c #636766",
"1$	c #6A6D6D",
"2$	c #696C6C",
"3$	c #555A5A",
"4$	c #595C5B",
"5$	c #4D5251",
"6$	c #595D5C",
"7$	c #565958",
"8$	c #585A5A",
"9$	c #626868",
"0$	c #616666",
"a$	c #4D5353",
"b$	c #464A49",
"c$	c #4D5150",
"d$	c #686D6D",
"e$	c #555757",
"f$	c #616566",
"g$	c #555858",
"h$	c #313737",
"i$	c #686C6B",
"j$	c #606565",
"k$	c #383C3B",
"l$	c #313534",
"m$	c #494D4C",
"n$	c #2B2E2D",
"o$	c #474B4A",
"p$	c #505453",
"q$	c #4B4F4E",
"r$	c #444A49",
"s$	c #222625",
"t$	c #525655",
"u$	c #3B4141",
"v$	c #212524",
"w$	c #2E3332",
"x$	c #222827",
"y$	c #333938",
"z$	c #343837",
"A$	c #272D2C",
"B$	c #373B3A",
"C$	c #383D3C",
"D$	c #323635",
"E$	c #363A39",
"F$	c #323534",
"G$	c #616363",
"H$	c #606362",
"I$	c #3F4443",
"J$	c #303534",
"K$	c #6B7070",
"L$	c #767979",
"M$	c #6F7271",
"N$	c #595F5E",
"O$	c #535756",
"P$	c #454747",
"Q$	c #6D7171",
"R$	c #757979",
"S$	c #7B8180",
"T$	c #7B8080",
"U$	c #5C6262",
"V$	c #424545",
"W$	c #363B3A",
"X$	c #696D6D",
"Y$	c #727777",
"Z$	c #787A7A",
"`$	c #656B6A",
" %	c #626867",
".%	c #606463",
"+%	c #333736",
"@%	c #4C504F",
"#%	c #353A39",
"$%	c #2B2C2C",
"%%	c #2C3130",
"&%	c #636867",
"*%	c #323838",
"=%	c #282E2D",
"-%	c #2C2F2E",
";%	c #2C302F",
">%	c #333635",
",%	c #272C2C",
"'%	c #2B2F2E",
")%	c #313635",
"!%	c #474949",
"~%	c #5D6262",
"{%	c #575959",
"]%	c #626665",
"^%	c #4E5251",
"/%	c #5E6060",
"(%	c #1D2222",
"_%	c #6F7373",
":%	c #686B6A",
"<%	c #5B5D5D",
"[%	c #2B302F",
"}%	c #505656",
"|%	c #1B2020",
"1%	c #6E7170",
"2%	c #666B6A",
"3%	c #676A69",
"4%	c #686B6B",
"5%	c #353938",
"6%	c #1D1E1E",
"7%	c #646867",
"8%	c #6B6E6E",
"9%	c #797C7C",
"0%	c #1F2221",
"a%	c #797D7D",
"b%	c #181C1B",
"c%	c #454948",
"d%	c #3B3D3D",
"e%	c #414645",
"f%	c #363C3C",
"g%	c #4B4D4D",
"h%	c #2C3232",
"i%	c #575D5C",
"j%	c #3C403F",
"k%	c #2A2F2E",
"l%	c #272928",
"m%	c #161717",
"n%	c #232726",
"o%	c #0E1010",
"p%	c #1E2322",
"q%	c #393F3F",
"r%	c #2D3130",
"s%	c #1B1E1D",
"t%	c #181C1C",
"u%	c #121616",
"v%	c #161B1B",
"w%	c #191D1D",
"x%	c #333837",
"y%	c #191A1A",
"z%	c #171A1A",
"A%	c #151717",
"B%	c #1B1F1F",
"C%	c #262727",
"D%	c #444646",
"E%	c #3D4140",
"F%	c #3E4140",
"G%	c #373C3B",
"H%	c #4C4E4E",
"I%	c #757978",
"J%	c #6E7271",
"K%	c #616767",
"L%	c #545757",
"M%	c #5A5F5E",
"N%	c #424645",
"O%	c #747777",
"P%	c #787B7B",
"Q%	c #6D6E6E",
"R%	c #656867",
"S%	c #616564",
"T%	c #5D6261",
"U%	c #717676",
"V%	c #6C6F6F",
"W%	c #7A7F7F",
"X%	c #707473",
"Y%	c #626766",
"Z%	c #606564",
"`%	c #4F5554",
" &	c #747878",
".&	c #4E5150",
"+&	c #414343",
"@&	c #454B4B",
"#&	c #666A69",
"$&	c #3F4544",
"%&	c #343938",
"&&	c #484E4E",
"*&	c #48484A",
"=&	c #4B4B4D",
"-&	c #444447",
";&	c #3F3E41",
">&	c #38383A",
",&	c #2F3031",
"'&	c #323435",
")&	c #333536",
"!&	c #313334",
"~&	c #2A2D2E",
"{&	c #262829",
"]&	c #222425",
"^&	c #1F2122",
"/&	c #1F2021",
"(&	c #1D1E1F",
"_&	c #2F3132",
":&	c #38383B",
"<&	c #363738",
"[&	c #373A3B",
"}&	c #323434",
"|&	c #353536",
"1&	c #393B3C",
"2&	c #424243",
"3&	c #404142",
"4&	c #454648",
"5&	c #434446",
"6&	c #454647",
"7&	c #444546",
"8&	c #3C3D3F",
"9&	c #363739",
"0&	c #3A393C",
"a&	c #3B3B3F",
"b&	c #3A393D",
"c&	c #353538",
"d&	c #303233",
"e&	c #2C2D2E",
"f&	c #2A2B2B",
"g&	c #2E3031",
"h&	c #323536",
"i&	c #353839",
"j&	c #292B2C",
"k&	c #2E2F31",
"l&	c #2D2E30",
"m&	c #2B2D2E",
"n&	c #2B2D2F",
"  . + @ + # $ %   & * = - - ; > , = ' ) ! ~ { ' ] ^ / ( _ : < [ } | 1 2 @ 3 4 5 6 7 8 9 0 a b c 2 8 $ d e f g h i @ j k h + l m ",
"$ e 7 n o p q ' ] r * 1 s ) / t u v w x y z A B C D E F G H I J K L M N 5 O P Q d 2 o R R S T ] ~ n n U V - 3 W Q ( 2 c X Y Z ` ",
" ...+.@...#.$.%.&.n *.0 =.-.;.F >.,.'.).!.~.!.{.].^./.H H (._.:.I K <.[.}.Q @ - o |.y 1.2.3.4.5.4.6.&.-.7.8.9.0.8.a.b.c.d.e.f.g.",
":.G h.$.i.j.k.l.m.n.9 i &.o.p.q.r.s.t.!.u.v.G w.x.y.w z.A.B.C.D.7.E.c.F.G.q H.I.J.K.L.M.N.C.b.O.P.A.P.Q.h.R.S.T.!.S.B G C U.V.(.",
"j.W.X.Y.Z.Q.`._. +> & .+++@+#+$+%+&+J i.*+=+-+;+c.>+,++.'+X.)+!+~+{+]+5.] ^+/+! (+,+t.I =+Z._+:.w :+h.t.t.<+&+&+T.t.t.S.T.A >.[+",
"=+x._+}++.|+R.1+:.} 3 2+3+4+<+t.t.>.5+6+A.!+a.x !+7+Y.'+C F A.A.8+;+9+0+G.p } ! a+y K I i.#.>+A.3.#._+$.:+:+_.Q.#.b+_+c+H d+>.e+",
"f+#.g+b.*+y.*+G A.U h+i+j+k+h.b+<+T.i.'+B.B.l+8+m+P.'+Q.c+z.n+o+p+(+a.q+] ( P V &.J T.H r+y s+t+n+A.u+u+v+..M >+w+P.#.<.h.x+J 3.",
"-+m+J y.h.[+P.A.y+V z++ / A+@.C D W.F B+b+k.H B+8+w+C+>+c.v+v+M -.&.[.9.P D+{ ) E+F+T.H L b+B.Z.X._+C+'+#.b+B+@.c.}+8.p+>+P.3.}+",
"G+!+%.,+A.g.H+/ o I+J+b K+4.[+K t.H h.$._+w ,+c.B...M }+x ..L+!+F.M+/ N+o > 4 ( K.O+M.U.Q.Z.e+L :.'+A.>+c.o+;+}+7.E+4.E+P+-.M+Q+",
"o < R+7.] < T S+V 3 n.T+U+V+8+J h.i.@.-.>+v+;.>+;.7+W+#.8+>+a.!+9+5.X+Y+V 5 ) > E+[+Z.:.w+w+$.Z+`+{+|.8.a.]+8.5. .^  @q =.s ; Y+",
"] 6..@F.+@@@ @#@1 > $@%@%@&@J *@w C+,+{+=@..L+}+K.%.]+|.y+q (+M ;+-@^+n 5 * 6 &@y+N.#.z.>+;@>@R+|.E++@e. .H+] U o [ o 1 = ,@o D+",
"'@/ t '@)@ @6 d n.6 !@~@{@Z C+]@^@.@9+K.a.4.T T /@(@: ) V+1 H+.@_@U =.1 :@5 O <@< A.%.[@|. @H+-.^ /@~ ) }@|@e 1 6 1@& 2@V 1 N+| ",
"s + 3@4@b V+4@Z 5@X 6@7@8@. / w.5+9@r 0@ .U | ( =.a@V+b@z+1 c@< / J+) d@1 1 f @ a@T 9@e@V 6 6 f i . b j T+X f@*.g@h@i@j@f k@$ 9 ",
"l@{@m@n@o@~@p@q@m@r@m@k s@d J+q }+t@s 8 K+K+5 u@6 v@c 9 @ V+= r o U ) 5 ) 1 9 @ j@c 1 2 a X w@X x@y@g@5@5@y@h <@5@T+z@A@B@C@D@T+",
"E@F@G@H@I@J@K@L@M@N@O@` 2+@ P@3 { q Q@i@j f@$ c @ f@x@x@x@b 9 V+| N+R@$@2 4@@ 2 6 S@S@` 0 f $@K+f 9 P@N@T@U@%@k s@*.g@B@D@# k 5@",
"] ~ u@f V@W@d $@X@^+< 5.g+]+0+U @ d 5@Y@$@c@G.f.|.@.,+F.^+n n.n.n < +@Z@o b 4 N @.w ;+Z@[ 8.o+>+}+9+`@] @ 6@k K+r / (+<  #.#< +#",
"Q.'+@#o+##5+x.$#%#<++.[.;+>+B.T J+!@h  @x c+&#*#=#-#;#>#w m+,#r c ; ] ~ X 4 c.'#)#W.w.y.!#C H J F i.F Z+[ 9 f -.w+y H W.%#~#K n+",
"q.{#!.]#=#^#/#(#_#:#$#~#<#>.h.T _ a > g+S.[#%+%+}#|#1#2#3#L.'+ +~ 9 Q@0 R@`@b+!#t.4#M.C G t.d+J 5#b+A+j.A.6#| 7#:+W._#8#_#9#0#B ",
"a#b#c#{.d#,.e#q.f#;#v./.]@g#W+o $@9 h#v.]@i#k+M.$.F w.j#@.C+;+ +^+&@. & 6.e+M.k#k.Q.Q.Q.#.A.c.[.x !+O.X.C+e@)@+.k.e#l#m#$#,.0#<#",
"v.>#n#h.R.E o#_+h.j.(.w o#y E+p#a @ q#w.]@{.r#s#o+a.t#t#p+o+0+N G.i @ T :.y.r+8+W+]+]+4.M+J. .E+y+N F.c.8+u#/+A.M.v#4+&+x+H g#w#",
"x#r+j#X.Z.y B+#._+X.u+;+v+G+X@*.c 4@`@>.<+w.w ,+B.!+[.7.Z@y#.#P 5 Q@K+z#x.J F v+.@.@E+e.N N -.&. @X+A#E+>+j+} B#{.,.C#K <.X.5+<.",
"$.:.D#O.A.A.w+m+y E#9+F#/ G#p#5@H#I#g.M.k+L #.B.K.-.5.P+/ | /+/@2 T+2 ;.L G w.c.F.-.a+ @<  @H+/@X@) ( (@y#5 s E#G J#K#y >+>+8+##",
"m+>+7.9@ .4.m.m.E+y+= _ 8 L#a c M#x@6 t#L.v+ +[ /@N+}./@^+( o Q 2 N#O#8.y.K L.;+y+/@( 1 1 =.r = ) P#n | W@h c F.,+)+b++.o+O.B#L+",
"Q#R#.@< /@ @ @ @~ =.S#!@I.|@& O T#b@9 d o ] { #@= 4 = ^+^+1 U#&@. i & y#w+3.0+-.A#1 V+K+V#K+d 2 V+W#X@2+5@h@x@/ %.5.[ 0+4.y+N y+",
"X#X+P ~ o )@Y#= 5 c Z#+ c I+`#* * 5 8 Z d K+5@ $T+h@@ $@f i $ $ j x@x@&@{ U - 1 ~ r .$D+H.+$$ K+) ( 6 + x@@ & > /+q q @$A#)@~ } ",
"V+2+V+H.0 e 8 s 4@5@y@& #$$$%$&$/+/+#$< ^ (+&@+ x@U#(@*$5.< H+,#=$-$.#;$E+4. @r _ >$j h ,$'$)$P@!$` d 9 c i Z 0 f $ e V+* $@K+* ",
"e U#e Z 5@y@<@r@N@~$V ;+P.(.T.>.K L.w+c+j.3.q $ f [ m+{$q.{.4#L t.,.!.2#]$2#B ^$*$H+K+|@` 6 (@5. ./$v+_+8+,+c.O.b+($&.] J+4 V $@",
"x ##_$:$) !@ $T+c )@O.<$C D ]@).[$O+!.v.v.5+^ }${ U.T.s.=#&+/.<+<+~#R.|$1$2$<+o+&.(+n s@V+4.3$J o#y.5+x.[+*+4$R.>.<#>#S.c+5$3.-.",
"&+v.6$A.m.N+6#2  .[+B+h.w 8+r#r#7$j#x+8$w.n+&.] ,#I 9$;#0$8+a$P.b+v+b$A.A+w.w K.> S+= x@| _+x#c$z h.[+w Q.w F 5+K >.g#d$q.&+!.e$",
"t.v.f$#.(@o 6 ^+..*+g$w P.B.n+o+B.n+,+@.8.,#< T h$y i$j$#.]+y+k$[ P+N  .7.9+7.H+P#d Z # z+c._+W+g+Z+o#g$X.e+F *+x+j.R.S.B t.x.B+",
"r+h.@.E#4 U e l$m$[+x+#.-+~+c.;+~+0.`+K.`@P+(+A##@;+C+v+c.8.e.M+y+ .6.N y+^ /+n$8 ` . n@f@K.=+#.o$n+p$v+,+,+Z.:.<$H W.M.C J 5+q$",
"r$M x Z@> ( j | 0.G J#^@p+|.9+7.`@0+{+8.0+ .(+v@O# @|.(+]  @ @@$/ (@(@(@Q 2 &@c e &@s$6@$ 4.A+C+o+ .;+c.>+%.A.P._+[+J h.L w #.t#",
"|.|.^ .$$@* x@@ q t$H #.^ .#a+^ E+8.=@8.e.u$$@$ f K+( { U = n V > * 2+8 v$b Z Z d - j T+4@,#%.8+B.;$0+8.q+|.`@4.`+B.,+u+P.n+;+5.",
"(@{ 6 $@c 9 & 4 & w$q+E+q { ~ r q / ] ^+_ 5 K+- e @ $ }@_ =.=.V V n.8 8 x$b Z c K+@ + h b c N+ @N _@(+y$S+}./ q q z$.#a+,#)@o G.",
"$@h a f $@$@* | V | /@.#t 4 A$=.4 a e >$3 V y#-$B$} C$p o | ( 7 U#9 i d n.V+s e 9 f f i @ d 9 & ~ = e 4 q D$n { H+E$4 ^+A##@- N+",
"b x@$ K+* ( F$.#=@5+R.G$j.,+/@=.{ V+{ k$^ #.B H$*@F r.e+%.0+_@{ $@& G.0+7+[.4.R+.#-.I$M+&.:$ @Q 1 o H+A.3$h.:.P.g$X.< ! V#5 f@J$",
"i = -.E#v+e+[+T.K$L$M$).!.w N V 6 t N 5+C 2.!.f#R.A+x+x+Q. .#@=.x@q ;+N$3$k#M.h.A+x.y.3$O$B#W+'@, = P.C L L.:.e+g$P.X#o K+a x@V ",
"P$j.Q$8#*#V.Q$R$S$T$[$U$j.;+.#= 5@| C+M.L.'++.`+q+ .E+R+B$)@) > P@z$W+N.^$k.j.X.3.L+V$;$0+0@]+A#r =.K.b+8.W$Q u@r )@l$4 b p#) | ",
"X$Y$Z$_#<#L.t.`$ %.%%.g+q+ @} e 5@z++@)+)+K.(+< /@ @^+r Q H.4@&@j _  +[.z#`@,#A#^+> n.$@r ~ n ( o V 4 X#C$+%> ( r #@r V o 0+P.@%",
"0$T.r+3$G+] E+ +q J+{ P T )@O#. ~ E$1 T #%( ^+} { r 6 Q@f@P@Z#i f 4@$%| )@N+1 =.=.=.2+V+1 5 %%=.V+i ` d & * V+` I+& W@(@@.H &%n#",
"7+_@*%.#r * c@D+n.V 6 > a+) . ~ u+v+=%W@>$Q@0 X x@h@Y # <@~$Y@Q Z@6 c Z # h@Z f@f @ 2 -%_ & & b@K+;%t a+^ [ < >%{ 9 7 p+G M.y 5.",
"$@x$@ f K+6 5 n.6 K+e =.* f ,%9+A.R+#%Q $@a j@f &@e 9 & V 2@V+)@E+7..@6 i h@2@(@/@q y+]+;.|.5. +]+##y C+,+)+J i.x =.'%I$A.*$X+- ",
"n | /+t ^ ]+[.;.M 8.K.v+V$y+)%U * * $@9 f c@r E+K.E#!%,+,+ .} U#= M g+} - e R+,+p$Z+~%&+!.H 5+L t.g#).W.L <+q.F y+o . 1 4 > n.f ",
"z {%8$R.!.>.x+w.G j$k#=+C L d.q f@&@+ c X#E##.U.]%q.,.$#:.8./ V $@ @d.o 0 ~ _+=+r.d$v#v#O+T.j$H L h.G$&+X$m#e#^% .(@&@& p ^ >+M ",
"b#R./%y.[+j#h.L x.~#M.x+c+Q.#.E+, (%j R@}+'+H &+%+_%Q$b#C w 5.U , & ^+, i .#w D 4+:%x.<%L #.u+v+n+@.:.x+K B j.[.X+( =.[%5.k#].$+",
"q.w.y.$.}%#.X.w j#<%F ,+..g+.@^ u@|%y@o o+A+1%m#<+]@4#W.x+Q.;$_ V+9 &@a V o+!.2%3%A+b$0.x 0@8.Q#`+n+b+b+w h.$.9.(@2+6 .#F &+2#4%",
"{.1.L._+8+A.n+@.w+A.L+;+..M G+5%1 h@6%g.[+%#2#7%<.F w O.9+;.W$n.f f + i h#8$C S.A+p+7.g.Q#V$t#`+]+x A.#.u+y g+|.] &@&@N !#8%9%C#",
"&+!.j.=+C+>+c.x >@E+t@t#x 7.y+J+V#+ 0%o+v.X$C#t$+.O$A.]+(+A#J$6 9 9 i@6 o+H !#L +.V$F.F.g.g.Q#V$4.8.x A.@#L+R+t n . @ 8.!.=#a%G ",
"]@D !#X.A.]+K..@m.@@T  . +5.t ( R@4@*.`+T.]@L.b.@.E#p+} = r = 2+9 y@b%o j.S.t.5#@.c%V$g.F.d%y+y+^ y+E+K.0.e%/@( 5 5@x@4.&+_%:#[+",
"~%=+y u+c.8.t@N S +@<  @f%k$#@V#6 9 j g.w.M.m+n+g%R+A#=.h%N+4 6 Z n@%@^ 1$M.4#<.;+0.V$^ .#t X#/@] o (@ .N < V+1 6 T+O@E$i%]@u.<.",
"_+%.v+o+8.P+&.j%y+(+G.q /+)@k%l%@ 5@T+N j.h.n+;@`@' V > 1 r n.f <@p@!@E#]#W.~%B+A.K. .k$X+o = = | Q ( /+/ ~ V+6 y@# <@{ ##R.C +.",
";+|.8.`+g.&.m.5.y+t P V 5 =.c c h@m%h@E+L.3$c.^ / 7 6 1 6 V+e Z#g@'$h+e+8%K L :.,+7.[ } = V ) 4 > &@V+n | * n%h@D@D@~$2 F.Z.^$]+",
"(+.$Q q ~ = #@A##@o ;%9 a . f@h@'$o%p%q%c.u+&.q { z+z+6 i x@Z j U+~$r%n+[+w 5+X.W+[ X#{ > ;%=.D+& f ,%V+6 i Y@b%r@D@s%i 4 I$0+E+",
"h%T#@ a 9 $@&@V+~ 5 . # ,$t%s@u%8@v%K+ @(+m.] } r 5 n.O#@ i h@i@w%h@%%} &. .v+m.+@x%n V++ $ /+F./@b n@n@n@y%z%r@n@A%h@a B%, U )@",
"5 v@d f p#e f @ c 9 C%y@T+t%T+Z f @ p r U > ~ } (@D+( u@W@. e f 4@$ d &@. x@b + 0 c . a 4@* '+k+X.r Y@~$4@c *.X v$f &@!@%@j |@2@",
"n$> > > 5 a@N+H+V$+.o+t#D%4.t++.c.4.p+g.K.J./ #@$ @ v@b 6 ^+e.6.4.E%(+P+6.-.t#g.R#F%G%y#(@= p+<.H%(+6 V+[ 7.F.^ E%F.6.y#^+= n '%",
";@;+E+r V+] E+w.2$I%m#i#J%q.i#,.K%!#j#5+5+L%@#;$=.d & o K.C+2.x+J h.:.j.$#{#l#i#,.C#&#z ;+] e { #@q o f.5+2%!.M%h..%{.$#j.5+y N%",
"z k#%./@c [ L.O%P%}#Q%4+i$R%S%L.A.v+c.n+g+m+%.A#U e V#%.T%<+U%%#U$~%G G ]@b#a#v#X$V%<+j.>+&.6 H.5 o E+<+O%W%X%Y%Z%3#:#8#4+Q$0$A.",
"`%b+Z@o &@E#2#_# &K t$<.p$.&P.B.+&P+y#y#^ ;$/ n r i X+T.3#w#w.O.@&C+k.#.:.8$<%A+5#j#b+m+`@[ +#e * o A.&+#&~%F P.,+w K /./.]%r+[.",
"[ H+( k%P#'+e#]#2.Q#Q#|. .e%+&a+t t X+X+/ P 4 > w$b u ).,.<+c.[.c.[.0.]+x >+P.3.L+;+4.-.&.T < 5 &@t w+>.x.b+C.0.M B.;+v+7+9.E%~ ",
"6 >$n U ) g+C 0$X.;+6.[ H+/ X+)@^+^+} z$G.p 1 ( r B%(@T.e#5+g.7.o+F.e%N 0+8.I$$&R+5.y+y+X#A#A#2 6 [ >+x.[+x ;$ +d.E+T / }.( * &@",
"9 =.D$_ 5 K.X.r+3.E+X+} /+q U V n V Q ( _ =.1 n$1 h@q c+j$B# .5%H+o } o +@ @w$( ] < %&B$} /@o 9 K+y#t#W+7.r = 4 ( = ( ) V+e 9 . ",
"> q ] 6 d@/@]+&& +a+X+,#q #@~ n =.1 2 O#n.,%n.) Z T#( G%;.u$[%V ~ l$n = N+U O#7 > 4 ( /+/+o & f e ( N E+p W * * W 5 &@e ` s 6 &@",
"*&=&-&;&>&,&R@'&/ )&&$} n !&r -%~&2@{&e ]&^&4@/&(&_&:&)&<&[&}&!&,@|&1&2&3&4&5&6&7&8&9&0&a&b&c&d&e&f&g&h&i&~&h+j&g&k&l&l&m&m&g&n&"};
