/* XPM */
static char * s_letter_xpm[] = {
"64 64 204 2",
"  	c #F1F1F1",
". 	c #F0F0F0",
"+ 	c #F7F7F7",
"@ 	c #F2F2F2",
"# 	c #FCFCFC",
"$ 	c #EEEEEE",
"% 	c #EBEBEB",
"& 	c #E9E9E9",
"* 	c #ECEBEC",
"= 	c #ECECEC",
"- 	c #EAEAEA",
"; 	c #EFEFEF",
"> 	c #F4F4F4",
", 	c #F9F9F9",
"' 	c #FCFBFC",
") 	c #FDFCFD",
"! 	c #FAF9FA",
"~ 	c #F0EFF0",
"{ 	c #EDEDED",
"] 	c #FDFDFD",
"^ 	c #FBFBFB",
"/ 	c #FBFAFB",
"( 	c #FAFAFA",
"_ 	c #F2F1F2",
": 	c #FEFEFE",
"< 	c #F7F6F7",
"[ 	c #FFFFFF",
"} 	c #F5F5F5",
"| 	c #E8E8E8",
"1 	c #F6F6F6",
"2 	c #B9B8B9",
"3 	c #8A8A8A",
"4 	c #656565",
"5 	c #3A3A3A",
"6 	c #313131",
"7 	c #515151",
"8 	c #797979",
"9 	c #A5A5A5",
"0 	c #DCDCDC",
"a 	c #DADADA",
"b 	c #BCBCBC",
"c 	c #F5F4F5",
"d 	c #E3E3E3",
"e 	c #838383",
"f 	c #040404",
"g 	c #000000",
"h 	c #7B7B7B",
"i 	c #C0C0C0",
"j 	c #DFDFDF",
"k 	c #D0D0D0",
"l 	c #A9A9A9",
"m 	c #4C4C4C",
"n 	c #747474",
"o 	c #DDDDDD",
"p 	c #9A9A9A",
"q 	c #707070",
"r 	c #B8B8B8",
"s 	c #171717",
"t 	c #474747",
"u 	c #D4D3D4",
"v 	c #B7B7B7",
"w 	c #1C1C1C",
"x 	c #9E9E9E",
"y 	c #3F3F3F",
"z 	c #828282",
"A 	c #F8F7F8",
"B 	c #E5E5E5",
"C 	c #010101",
"D 	c #3C3C3C",
"E 	c #E6E6E6",
"F 	c #D6D6D6",
"G 	c #242424",
"H 	c #111111",
"I 	c #F8F8F8",
"J 	c #CECECE",
"K 	c #C7C7C7",
"L 	c #C2C2C2",
"M 	c #939393",
"N 	c #F6F5F6",
"O 	c #555555",
"P 	c #494949",
"Q 	c #7E7E7E",
"R 	c #969696",
"S 	c #F9F8F9",
"T 	c #DBDBDB",
"U 	c #D3D3D3",
"V 	c #959595",
"W 	c #999999",
"X 	c #A6A6A6",
"Y 	c #AEAEAE",
"Z 	c #727272",
"` 	c #9C9C9C",
" .	c #7C7C7C",
"..	c #BCBBBC",
"+.	c #A0A0A0",
"@.	c #E4E4E4",
"#.	c #626262",
"$.	c #949494",
"%.	c #E2E2E2",
"&.	c #A2A2A2",
"*.	c #CCCCCC",
"=.	c #606060",
"-.	c #4A4A4A",
";.	c #222222",
">.	c #A4A4A4",
",.	c #717171",
"'.	c #636363",
").	c #CFCFCF",
"!.	c #D4D4D4",
"~.	c #DEDEDE",
"{.	c #C6C6C6",
"].	c #C5C5C5",
"^.	c #737373",
"/.	c #E7E7E7",
"(.	c #262626",
"_.	c #696969",
":.	c #AAAAAA",
"<.	c #323232",
"[.	c #5B5B5B",
"}.	c #808080",
"|.	c #BEBEBE",
"1.	c #303030",
"2.	c #292929",
"3.	c #BDBDBD",
"4.	c #D9D9D9",
"5.	c #343434",
"6.	c #666666",
"7.	c #F3F3F3",
"8.	c #5C5C5C",
"9.	c #050505",
"0.	c #4E4E4E",
"a.	c #4B4B4B",
"b.	c #BABABA",
"c.	c #9F9F9F",
"d.	c #6D6D6D",
"e.	c #B5B5B5",
"f.	c #CACACA",
"g.	c #6A6A6A",
"h.	c #B2B2B2",
"i.	c #D2D2D2",
"j.	c #B7B6B7",
"k.	c #1F1F1F",
"l.	c #464646",
"m.	c #C8C8C8",
"n.	c #B3B3B3",
"o.	c #C4C4C4",
"p.	c #030303",
"q.	c #B4B4B4",
"r.	c #BBBBBB",
"s.	c #A8A8A8",
"t.	c #333333",
"u.	c #B5B4B5",
"v.	c #989898",
"w.	c #B1B1B1",
"x.	c #9B9B9B",
"y.	c #D5D5D5",
"z.	c #ADADAD",
"A.	c #909090",
"B.	c #5D5D5D",
"C.	c #B0B0B0",
"D.	c #CBCBCB",
"E.	c #2D2D2D",
"F.	c #1E1E1E",
"G.	c #C9C9C9",
"H.	c #B9B9B9",
"I.	c #7A7A7A",
"J.	c #A3A3A3",
"K.	c #AFAFAF",
"L.	c #ABABAB",
"M.	c #C3C3C3",
"N.	c #252525",
"O.	c #A7A7A7",
"P.	c #414141",
"Q.	c #BFBFBF",
"R.	c #B6B6B6",
"S.	c #161616",
"T.	c #020202",
"U.	c #C1C1C1",
"V.	c #3D3D3D",
"W.	c #0E0E0E",
"X.	c #484848",
"Y.	c #F1F0F1",
"Z.	c #D1D1D1",
"`.	c #919191",
" +	c #767676",
".+	c #A3A2A3",
"++	c #060606",
"@+	c #2E2E2E",
"#+	c #6C6C6C",
"$+	c #EAE9EA",
"%+	c #888888",
"&+	c #979797",
"*+	c #0B0B0B",
"=+	c #9D9D9D",
"-+	c #8D8D8D",
";+	c #6E6E6E",
">+	c #535353",
",+	c #575757",
"'+	c #777777",
")+	c #D8D8D8",
"!+	c #A6A5A6",
"~+	c #E0E0E0",
"{+	c #D7D7D7",
"]+	c #CDCDCD",
"  . . . . . . . . . . . . . . . . . . . . . . . . . . . . . . . . . . . . . . . . . . . . . . . . . . . . . . . . . . . . . . . ",
"+ . . . . . . . . . . . . . . . . . . . . . . . . . . . . . . . . . . . . . . . . . . . . . . . . . . . . . . . . . . . . . . . ",
"+ . . . . . . . . . . . . . . . . . . . . . . . . . . . . . . . . . . . . . . . . . . . . . . . . . . . . . . . . . . . . . . . ",
"@ . . . . . . . . . . . . . . . . . . . . . . . . . . . . . . . . . . . . . . . . . . . . . . . . . . . . . . . . . . . . . . . ",
"# . . . . . . . . . . . . . . . . . . . . . . . . . . $ % & * = = = = = - & = ; . . . . . . . . . . . . . . . . . . . . . . . . ",
"; . . . . . . . . . . . . . . . . . . . . . . ; = % ; > , ' # ) ' ' ' ' ' ! > ~ = & { . . . . . . . . . . . . . . . . . . . . . ",
", . . . . . . . . . . . . . . . . . . . . ; - . + ] ] ] ] ] ] ] ] ] # # # # # ^ / ( _ % % ; . . . . . . . . . . . . . . . . . . ",
"> . . . . . . . . . . . . . . . . . . ; -   ^ ] ] ] ] ] ] ] ] ] ] ] : : : ] ] ] # ' ( ( < % - . . . . . . . . . . . . . . . . . ",
"> . . . . . . . . . . . . . . . . . % $ ^ : : : : : : : : : : : : [ [ [ [ : : : ] ] ] # # / } - { . . . . . . . . . . . . . . . ",
"( . . . . . . . . . . . . . . . ; | 1 : : : : : : : : : : : : : : : : [ [ [ [ [ [ [ : : ] ' / ( ; & . . . . . . . . . . . . . . ",
"; . . . . . . . . . . . . . . { | ^ : : : : : : : : : | 2 3 4 5 6 7 8 9 0 : [ [ [ [ a b : ] # ^ ( c | ; . . . . . . . . . . . . ",
"^ . . . . . . . . . . . . . - - ] : : : : : : : : d e f g h i a d j k l m n o [ [ [ p q : : ] ] ' ( + - $ . . . . . . . . . . . ",
"@ . . . . . . . . . . . . | - ] : : : : : : : ] r s g t u : [ [ [ [ [ [ , v w x =   y z : [ [ : ] ^ , A & ; . . . . . . . . . . ",
"1 . . . . . . . . . . . & B # ] : : : : : : ] l g C D E [ [ [ [ [ [ [ [ [ [ F G f H g 3 : [ [ [ : ] ^ I + & ; . . . . . . . . . ",
"+ . . . . . . . . . . { o # : : : : : : : : J C g g K [ [ [ [ [ [ [ [ [ [ [ : L g g C M [ [ [ [ : : # ( + N & ; . . . . . . . . ",
". . . . . . . . . . ; F ( : : : : : : : : ( O g g P ( [ [ [ [ [ [ [ [ [ [ [ [ ] Q g C R [ [ [ [ [ [ : ] S + @ % . . . . . . . . ",
"# . . . . . . . . . T . ] : : : : : : : : U g g g V [ [ [ [ [ [ [ [ [ [ [ [ [ [ o C C W [ [ [ [ [ [ : ] ^ I + { ; . . . . . . . ",
". . . . . . . . . - 0 ^ : : : : : : : : : X g g g Y [ [ [ [ [ [ [ [ [ [ [ [ [ [ : Z C ` [ [ [ [ [ [ [ [ ] ! + + & . . . . . . . ",
"I . . . . . . . . k A ] ] : : : : : : : :  .g g g Y [ [ [ [ [ [ [ [ [ [ [ [ [ [ [ ..C +.[ [ [ [ [ [ [ [ : ] I 1 . = . . . . . . ",
"1 . . . . . . . @.o ^ : : : : : : : : : ] #.g g g $.[ [ [ [ [ [ [ [ [ [ [ [ [ [ [ %.g &.[ [ [ [ [ [ [ [ : ] / + + & ; . . . . . ",
"@ . . . . . . . *.1 ] : : : : : : : : : ] =.g g g -.^ [ [ [ [ [ [ [ [ [ [ [ [ [ [ ^ ;.>.[ [ [ [ [ [ [ [ : ] ) I 1   = . . . . . ",
"^ . . . . . . | U ! ] ] ] : : : : : : : ] ,.g g g g *.[ [ [ [ [ [ [ [ [ [ [ [ [ [ : '.>.[ [ [ [ [ [ [ [ [ : ] , 1 + | . . . . . ",
"; . . . . . . ).= ' ] ] ] : : : : : : : : W g g g g -.. [ [ [ [ [ [ [ [ [ [ [ [ [ [ !.~.[ [ [ [ [ [ [ [ [ : ] ^ + + { ; . . . . ",
"( . . . . . ; {.> ] ] ] ] : : : : : : : : ].g g g g g ^.} [ [ [ [ [ [ [ [ [ [ [ [ [ [ [ [ [ [ [ [ [ [ [ [ : ] ) , 1 > % . . . . ",
"> . . . . . /.J 1 # # ] ] : : : : : : : :   (.g g g g g _.| [ [ [ [ [ [ [ [ [ [ [ [ [ [ [ [ [ [ [ [ [ [ [ [ : ) ( 1 + | ; . . . ",
"> . . . . . !.j + # ' ] ] : : : : : : : : : :.g g g g g g <.L ] [ [ [ [ [ [ [ [ [ [ [ [ [ [ [ [ [ [ [ [ [ [ : ] ' + 1 = ; . . . ",
", . . . . . L = A # ( ) ] : : : : : : : : : 1 [.g g g g g g g }.- [ [ [ [ [ [ [ [ [ [ [ [ [ [ [ [ [ [ [ [ [ [ : ] I 1 $ ; . . . ",
"; . . . . ; |.= + , ( ) ] ] : : : : : : : : : %.1.g g g g g g g 2.v ( [ [ [ [ [ [ [ [ [ [ [ [ [ [ [ [ [ [ [ [ : ] ! 1 @ { . . . ",
"# . . . . $ 3.& 1 + , # ] : : : : : : : : : : : 4.5.g g g g g g g g 6.T [ [ [ [ [ [ [ [ [ [ [ [ [ [ [ [ [ [ [ : ] ! 1 } % . . . ",
"@ . . . . % b d 7.1 I ' ] : : : : : : : : : : : [ d 8.g g g g g g g g 9.x > [ [ [ [ [ [ [ [ [ [ [ [ [ [ [ [ [ : ] ^ 1 S & . . . ",
"+ . . . . | 3.0 ; > + ( ] : : : : : : : : : [ [ : [ } W g g g g g g g g g 0.!.[ [ [ [ [ [ [ [ [ [ [ [ [ [ [ [ : ] ^ 1 , & . . . ",
"+ . . . . E 3.!.&   1 , # ] : : : : : : : : [ [ : : [ [ ).a.g g g g g g g C C &., [ [ [ [ [ [ [ [ [ [ [ [ [ [ : ] ^ 1 , & . . . ",
"  . . . . E b.J d ; } + # ] : : : : : : : : [ [ [ [ [ [ [ > c.f g g g g g g g g d.% [ [ [ [ [ [ [ [ [ [ [ [ [ : ] ^ 1 , & . . . ",
"# . . . . | e.f.T { 7.I # ] ] : : : : : : : : : : [ [ [ [ [ [ o g.g g g g g g g g P @.[ [ [ [ [ [ [ [ [ [ [ [ : ] / 1 , & . . . ",
"; . . . . = h.K i.&   1 ! ] ] : : : : : : : : : : [ [ [ [ [ [ [ ^ j.k.g g g g g g g l.- [ [ [ [ [ [ [ [ [ [ [ : ] ( 1 N % . . . ",
", . . . . ; Y K m.@.$ } A ^ ] ] : : : : : : : : : : : : [ [ [ [ [ : @._.g g g g g g g g., [ [ [ [ [ [ [ [ : : : ] ( 1 7.$ . . . ",
"} . . . . . n.{.|.o % 7.1 , ] ] : : : : : : : : : : : : [ [ [ [ [ [ [ + W g g g g g g g h.[ [ [ [ [ [ [ [ : : : ] ( 1 ~ ; . . . ",
"7.. . . . . o.3.v U | . } I ^ ] ] : : : : : : : : : : : [ [ [ [ [ [ [ [ : e.p.g g g g g 6 > [ [ [ [ : : : : : : ] , + $ . . . . ",
"( . . . . . a h.q.K %.= > + ! # ] : : : : e.~.: : : : : : : [ [ [ : [ [ [ : r.g g g g g g o.[ [ [ [ : : : : : : ] I , - . . . . ",
"; . . . . . - s.r r.a | . } I ^ ] ] : : : t.u.: : : : : : : [ [ [ : [ [ [ [ : v.g g g g g v.[ [ : : : : : : : : # + } = . . . . ",
"( . . . . . ; q.b.w.*.%.= @ + ( ] ] ] : : 6 x.: : : : : : : : [ [ : [ [ [ [ [ ; ;.g g g g ,.: : : : : : : : : : ( I ; ; . . . . ",
"7.. . . . . . y.Y z.3.4.E $ > + / ] ] : : 1.^.: : : : : : : : [ [ [ [ [ [ [ [ : A.g g g g B.: : : : : : : : : ] I ( - . . . . . ",
"} . . . . . . = X q.C.D.~.&   } + / ] ] : E.F.I : : : : : : : : : : [ [ [ [ [ [ b g g g g #.: : : : : : : : : # S @ $ . . . . . ",
"I . . . . . . . G.z.:.H.!.%.= @ } I ' ] ] 2.g a : : : : : : : : : : [ [ [ : : : J g g g g I.: : : [ [ [ [ : ] ( ^ % . . . . . . ",
"; . . . . . . . - J.K.L.M.a E $ 7.1 S ' ] N.g X : : : : : : : : : : : : : : : : J g g g g +.] : [ [ [ [ [ ] ' ,   $ . . . . . . ",
"# . . . . . . . . ).X O.w.f.o | ; > 1 , ^ k.C P.A : : : : : : : : : : : : : : : Q.g g g g *.: : : [ [ [ ] # , I - . . . . . . . ",
"  . . . . . . . . { z.L.9 R.k ~.| ; 7.1 I S.T.T.U.: : : : : : : : : : : : : : : x g g g V.+ : : : : : ] # ! , { ; . . . . . . . ",
"+ . . . . . . . . . d c.s.9 r.i.j | ; 7.> W.T.T.X.7.: : : : : : : : : : : : : + l.g g g r : : : : : ] ' , + Y.{ . . . . . . . . ",
"+ . . . . . . . . . ; U x 9 O.b Z.~./.$ $ 9.p.p.T.`.# : : : : : : : : : : : : r g g g  +, : : : : ] ' , 1 7.- ; . . . . . . . . ",
"@ . . . . . . . . . . . ].c..+O.b ).0 B B p.++@+f p.J.! : : : : : : : : : : i.F.g g #+  : : : ] ] / I 1 7.$+; ; . . . . . . . . ",
"# . . . . . . . . . . . $ |.+.>.X r *.a a 9.%+7.a Q T.I.~.: : : : : : : 1 C.H C C &+} ] : : ] # ^ A > @ | $ ; . . . . . . . . . ",
"; . . . . . . . . . . . . { i x 9 >.q.m.m.*+3.$ @ > *.n g q Y f.i.i.K +.y C C }.4.] ] ] ] # ^ I } @ ; | ; . . . . . . . . . . . ",
", . . . . . . . . . . . . . $ m.=+X &.Y H.V i.E = $ @ > o n.-+;+>+t ,+'+W U.- ] ] ] ] # ( I }   ; | /.; . . . . . . . . . . . . ",
"> . . . . . . . . . . . . . . . )++.O.!+s.H.f.F ~+E % $   7.> 1 + I , ( ( ^ # ' ^ ! + } 7.; % % ~+- . . . . . . . . . . . . . . ",
"> . . . . . . . . . . . . . . . . /.H.c.L.l K.|.*.{+j @.& = $   7.> } } 1 1 } > @ . { - /./.j j $ . . . . . . . . . . . . . . . ",
"( . . . . . . . . . . . . . . . . . ; 0 z.&.K.Y n.|.G.U 4.j %.B | - % % % % - | B %.~+%.T a - ; . . . . . . . . . . . . . . . . ",
"; . . . . . . . . . . . . . . . . . . . $ 4.n.&.:.e.v b o.f.).Z.y.{+4.4.4.)+{+{+4.{+k F & . . . . . . . . . . . . . . . . . . . ",
"^ . . . . . . . . . . . . . . . . . . . . . . E ]+h.s.:.h.b i U.o.{.G.D.J f.o.K J 0 { . . . . . . . . . . . . . . . . . . . . . ",
"@ . . . . . . . . . . . . . . . . . . . . . . . . . = ~+Z.o.b 3.|.|.U.{.*.4./.; . . . . . . . . . . . . . . . . . . . . . . . . ",
"1 . . . . . . . . . . . . . . . . . . . . . . . . . . . . . . . ; . . . .   . . . . . . . . . . . . . . . . . . . . . . . . . . ",
"+ . . . . . . . . . . . . . . . . . . . . . . . . . . . . . . . . . . . . . . . . . . . . . . . . . . . . . . . . . . . . . . . ",
". . . . . . . . . . . . . . . . . . . . . . . . . . . . . . . . . . . . . . . . . . . . . . . . . . . . . . . . . . . . . . . . ",
"# . . . . . . . . . . . . . . . . . . . . . . . . . . . . . . . . . . . . . . . . . . . . . . . . . . . . . . . . . . . . . . . ",
". . . . . . . . . . . . . . . . . . . . . . . . . . . . . . . . . . . . . . . . . . . . . . . . . . . . . . . . . . . . . . . . "};
